<svg xmlns="http://www.w3.org/2000/svg" xmlns:xlink="http://www.w3.org/1999/xlink" width="100" zoomAndPan="magnify" viewBox="0 0 75 60" height="80" preserveAspectRatio="xMidYMid meet" version="1.0"><defs><g/><clipPath id="8a11a37416"><path d="M 17.050781 4.5 L 58.300781 4.5 L 58.300781 46.5 L 17.050781 46.5 Z M 17.050781 4.5 " clip-rule="nonzero"/></clipPath></defs><g clip-path="url(#8a11a37416)"><path fill="#ffffff" d="M 38.496094 44.40625 C 40.484375 44.445312 42.363281 43.945312 44.242188 43.378906 C 44.429688 43.855469 44.617188 44.328125 44.816406 44.8125 C 40.054688 46.457031 35.292969 46.417969 30.535156 44.789062 C 30.558594 44.707031 30.574219 44.644531 30.601562 44.578125 C 30.746094 44.167969 30.878906 43.761719 31.039062 43.328125 C 32.933594 43.90625 34.828125 44.394531 36.84375 44.417969 C 36.84375 44.355469 36.84375 44.289062 36.84375 44.234375 C 36.84375 43.339844 36.84375 42.433594 36.828125 41.539062 C 36.828125 41.195312 36.65625 41.011719 36.308594 40.960938 C 35.5625 40.855469 34.800781 40.773438 34.066406 40.617188 C 31.214844 39.960938 28.707031 38.65625 26.585938 36.671875 C 25.734375 35.878906 25.011719 34.984375 24.304688 34.078125 C 24.277344 34.039062 24.238281 34 24.199219 33.945312 C 23.867188 34.132812 23.53125 34.316406 23.199219 34.5 C 22.707031 34.761719 22.226562 35.039062 21.730469 35.300781 C 21.398438 35.484375 21.359375 35.644531 21.613281 35.945312 C 22.570312 37.089844 23.53125 38.234375 24.480469 39.378906 C 24.679688 39.617188 24.867188 39.855469 25.078125 40.089844 C 24.785156 40.433594 24.503906 40.773438 24.199219 41.128906 C 22.613281 39.773438 21.226562 38.25 20.089844 36.527344 C 18.558594 34.195312 17.582031 31.65625 17.050781 28.921875 C 17.515625 28.828125 17.972656 28.738281 18.449219 28.644531 C 19.089844 30.511719 19.746094 32.367188 20.382812 34.25 C 21.386719 33.695312 22.371094 33.144531 23.371094 32.589844 C 23.238281 32.277344 23.105469 31.960938 22.972656 31.65625 C 22.453125 30.445312 22.039062 29.210938 21.796875 27.921875 C 21.542969 26.539062 21.492188 25.15625 21.613281 23.761719 C 21.71875 22.460938 21.972656 21.171875 22.386719 19.921875 C 22.558594 19.410156 22.785156 18.921875 22.972656 18.410156 C 23.011719 18.289062 23.023438 18.160156 23.023438 18.039062 C 23.023438 17.882812 22.933594 17.765625 22.785156 17.683594 C 22.039062 17.277344 21.304688 16.867188 20.53125 16.433594 C 20.382812 16.722656 20.222656 17 20.089844 17.289062 C 19.382812 18.738281 18.929688 20.25 18.609375 21.816406 C 18.585938 21.972656 18.492188 22 18.371094 21.972656 C 18.089844 21.90625 17.8125 21.855469 17.53125 21.761719 C 17.222656 21.660156 17.105469 21.488281 17.171875 21.171875 C 17.304688 20.566406 17.4375 19.949219 17.609375 19.355469 C 18.558594 16.171875 20.222656 13.394531 22.570312 11.015625 C 23.011719 10.566406 23.492188 10.132812 23.957031 9.699219 C 24 9.660156 24.039062 9.632812 24.078125 9.605469 C 24.171875 9.554688 24.253906 9.554688 24.332031 9.660156 C 24.574219 9.960938 24.839844 10.25 25.105469 10.554688 C 23.824219 12.027344 22.519531 13.5 21.210938 14.972656 C 22.144531 15.515625 23.050781 16.039062 23.984375 16.578125 C 27.039062 12.054688 31.375 9.683594 36.816406 9.160156 C 36.816406 8.1875 36.816406 7.210938 36.816406 6.226562 C 34.828125 6.226562 32.933594 6.710938 31.039062 7.316406 C 30.894531 6.9375 30.746094 6.566406 30.628906 6.1875 C 30.574219 6.015625 30.789062 5.777344 31 5.726562 C 31.800781 5.542969 32.585938 5.332031 33.386719 5.171875 C 34.28125 4.988281 35.1875 4.816406 36.082031 4.6875 C 37.054688 4.542969 38.042969 4.554688 39.015625 4.632812 C 40.523438 4.75 42.015625 5.015625 43.46875 5.410156 C 43.949219 5.542969 44.417969 5.6875 44.898438 5.84375 C 44.710938 6.332031 44.523438 6.804688 44.324219 7.289062 C 42.429688 6.710938 40.523438 6.226562 38.507812 6.226562 C 38.507812 6.277344 38.496094 6.332031 38.496094 6.371094 C 38.496094 7.238281 38.496094 8.121094 38.496094 8.988281 C 38.496094 9.121094 38.535156 9.160156 38.65625 9.171875 C 41.949219 9.488281 44.992188 10.488281 47.632812 12.515625 C 49.097656 13.632812 50.324219 14.972656 51.367188 16.488281 C 51.390625 16.527344 51.417969 16.554688 51.445312 16.59375 C 51.472656 16.59375 51.484375 16.578125 51.5 16.578125 C 52.246094 16.160156 52.980469 15.738281 53.726562 15.316406 C 53.847656 15.25 53.871094 15.171875 53.871094 15.054688 C 53.859375 14.871094 53.792969 14.699219 53.671875 14.539062 C 52.671875 13.160156 51.578125 11.855469 50.457031 10.582031 C 50.378906 10.488281 50.378906 10.421875 50.445312 10.332031 C 50.644531 10.054688 50.832031 9.777344 51.046875 9.488281 C 52.992188 10.894531 54.460938 12.710938 55.671875 14.710938 C 56.980469 16.867188 57.941406 19.160156 58.300781 21.699219 C 57.808594 21.777344 57.328125 21.84375 56.820312 21.921875 C 56.40625 20.027344 55.832031 18.183594 54.871094 16.472656 C 54.820312 16.5 54.78125 16.515625 54.738281 16.539062 C 53.992188 16.960938 53.257812 17.382812 52.511719 17.804688 C 52.40625 17.867188 52.378906 17.921875 52.417969 18.039062 C 52.738281 19.144531 53.074219 20.238281 53.367188 21.34375 C 53.765625 22.84375 53.914062 24.367188 53.859375 25.921875 C 53.78125 28 53.273438 29.988281 52.351562 31.867188 C 52.285156 32 52.246094 32.132812 52.207031 32.261719 C 52.140625 32.472656 52.21875 32.632812 52.378906 32.761719 C 52.445312 32.816406 52.511719 32.855469 52.578125 32.894531 C 53.3125 33.300781 54.058594 33.710938 54.792969 34.117188 C 54.820312 34.132812 54.847656 34.144531 54.898438 34.171875 C 55.832031 32.472656 56.433594 30.65625 56.820312 28.75 C 57.300781 28.816406 57.78125 28.894531 58.273438 28.960938 C 58.246094 29.210938 58.21875 29.445312 58.179688 29.695312 C 57.914062 31.300781 57.355469 32.800781 56.632812 34.25 C 55.554688 36.445312 54.140625 38.421875 52.367188 40.128906 C 51.992188 40.5 51.59375 40.828125 51.191406 41.195312 C 50.886719 40.839844 50.59375 40.5 50.285156 40.15625 C 50.550781 39.855469 50.804688 39.550781 51.058594 39.25 C 51.953125 38.195312 52.847656 37.128906 53.738281 36.078125 C 54.097656 35.65625 54.058594 35.5 53.566406 35.234375 C 52.9375 34.894531 52.324219 34.539062 51.710938 34.183594 C 51.671875 34.15625 51.632812 34.132812 51.59375 34.117188 C 51.324219 33.972656 51.164062 34.011719 50.980469 34.25 C 50.765625 34.527344 50.566406 34.816406 50.339844 35.089844 C 48.40625 37.5 45.9375 39.171875 43.015625 40.195312 C 41.777344 40.628906 40.484375 40.894531 39.164062 40.960938 C 39.042969 40.972656 38.921875 40.984375 38.800781 41.011719 C 38.589844 41.050781 38.507812 41.144531 38.496094 41.355469 C 38.480469 41.472656 38.46875 41.589844 38.46875 41.695312 C 38.46875 42.578125 38.46875 43.445312 38.46875 44.328125 C 38.480469 44.328125 38.480469 44.355469 38.496094 44.40625 Z M 52.207031 25.316406 C 52.21875 25.289062 52.21875 25.277344 52.21875 25.261719 C 52.21875 25.210938 52.21875 25.171875 52.21875 25.117188 C 52.230469 23.90625 52.085938 22.710938 51.777344 21.527344 C 51.085938 18.894531 49.777344 16.621094 47.765625 14.75 C 46.191406 13.289062 44.363281 12.238281 42.335938 11.5 C 39.882812 10.605469 37.390625 10.410156 34.828125 10.988281 C 33.109375 11.371094 31.535156 12.066406 30.039062 12.988281 C 27.171875 14.738281 25.132812 17.160156 24.039062 20.328125 C 23.503906 21.882812 23.238281 23.5 23.160156 25.132812 C 23.160156 25.199219 23.160156 25.25 23.160156 25.316406 C 32.855469 25.316406 42.523438 25.316406 52.207031 25.316406 Z M 34.667969 27.027344 C 34.65625 27.25 34.640625 27.460938 34.640625 27.671875 C 34.640625 30.972656 34.640625 34.289062 34.640625 37.589844 C 34.640625 37.945312 34.628906 38.300781 34.640625 38.65625 C 34.65625 38.984375 34.773438 39.089844 35.109375 39.15625 C 36.496094 39.394531 37.894531 39.472656 39.296875 39.316406 C 39.628906 39.273438 39.949219 39.222656 40.269531 39.15625 C 40.523438 39.105469 40.65625 38.933594 40.695312 38.683594 C 40.710938 38.605469 40.710938 38.511719 40.710938 38.433594 C 40.710938 37.65625 40.710938 36.878906 40.710938 36.105469 C 40.710938 33.328125 40.710938 30.550781 40.710938 27.777344 C 40.710938 27.527344 40.683594 27.277344 40.667969 27.027344 C 38.640625 27.027344 36.667969 27.027344 34.667969 27.027344 Z M 42.269531 38.628906 C 42.511719 38.550781 42.738281 38.511719 42.921875 38.40625 C 43.992188 37.855469 45.058594 37.289062 46.109375 36.710938 C 46.363281 36.578125 46.511719 36.355469 46.523438 36.066406 C 46.539062 35.894531 46.539062 35.734375 46.539062 35.566406 C 46.539062 34.527344 46.539062 33.5 46.539062 32.460938 C 46.539062 30.839844 46.539062 29.222656 46.539062 27.605469 C 46.539062 27.421875 46.523438 27.222656 46.511719 27.027344 C 45.097656 27.027344 43.683594 27.027344 42.269531 27.027344 C 42.269531 30.882812 42.269531 34.734375 42.269531 38.628906 Z M 28.761719 27.039062 C 28.761719 27.117188 28.761719 27.171875 28.761719 27.222656 C 28.761719 29.710938 28.761719 32.210938 28.761719 34.695312 C 28.761719 34.984375 28.773438 35.261719 28.785156 35.550781 C 28.8125 36.128906 29.039062 36.589844 29.546875 36.894531 C 29.625 36.945312 29.707031 37 29.785156 37.050781 C 30.800781 37.65625 31.894531 38.128906 32.972656 38.617188 C 32.988281 38.628906 33.015625 38.617188 33.027344 38.617188 C 33.027344 34.75 33.027344 30.894531 33.027344 27.039062 C 31.613281 27.039062 30.199219 27.039062 28.761719 27.039062 Z M 48.113281 34.816406 C 48.203125 34.75 48.285156 34.695312 48.351562 34.644531 C 48.605469 34.394531 48.871094 34.15625 49.097656 33.894531 C 50.324219 32.367188 51.179688 30.644531 51.753906 28.777344 C 51.914062 28.261719 52.03125 27.738281 51.980469 27.195312 C 51.964844 27.066406 51.925781 27.027344 51.792969 27.027344 C 50.617188 27.027344 49.445312 27.027344 48.269531 27.027344 C 48.21875 27.027344 48.164062 27.027344 48.113281 27.039062 C 48.113281 29.617188 48.113281 32.195312 48.113281 34.816406 Z M 27.160156 34.617188 C 27.160156 32.066406 27.160156 29.550781 27.160156 27.027344 C 25.894531 27.027344 24.625 27.027344 23.359375 27.027344 C 23.8125 29.945312 25.011719 32.484375 27.160156 34.617188 Z M 27.253906 21 C 27.386719 21.660156 27.785156 22.054688 28.453125 22.183594 C 29.386719 22.367188 30.308594 22.367188 31.226562 22.132812 C 32.773438 21.738281 33.933594 20.804688 34.773438 19.5 C 35.347656 18.605469 35.480469 17.617188 35.214844 16.59375 C 34.839844 15.171875 33.613281 14.222656 32.148438 14.265625 C 31.015625 14.289062 29.988281 14.660156 29.105469 15.382812 C 27.746094 16.5 27.144531 17.988281 27.09375 19.882812 C 27.132812 20.144531 27.171875 20.578125 27.253906 21 Z M 46.3125 22.316406 C 47.324219 22.261719 47.992188 21.710938 48.246094 20.738281 C 48.390625 20.132812 48.363281 19.527344 48.269531 18.910156 C 48.042969 17.394531 47.363281 16.160156 46.097656 15.25 C 45.242188 14.632812 44.335938 14.210938 43.257812 14.25 C 42.535156 14.277344 41.871094 14.449219 41.324219 14.921875 C 40.203125 15.894531 39.894531 17.132812 40.230469 18.539062 C 40.441406 19.410156 41.003906 20.078125 41.628906 20.683594 C 42.816406 21.828125 44.269531 22.289062 45.898438 22.316406 C 46.03125 22.316406 46.175781 22.316406 46.3125 22.316406 Z M 37.65625 23.988281 C 38.550781 23.972656 39.28125 23.25 39.269531 22.394531 C 39.269531 21.578125 38.441406 20.761719 37.628906 20.777344 C 36.773438 20.789062 36 21.566406 36 22.394531 C 36.027344 23.316406 36.722656 24 37.65625 23.988281 Z M 37.65625 23.988281 " fill-opacity="1" fill-rule="nonzero"/></g><g fill="#ffffff" fill-opacity="1"><g transform="translate(13.607556, 54.504503)"><g><path d="M 2.390625 0.09375 C 1.992188 0.09375 1.640625 0.0234375 1.328125 -0.109375 C 1.023438 -0.242188 0.785156 -0.441406 0.609375 -0.703125 C 0.429688 -0.960938 0.335938 -1.273438 0.328125 -1.640625 L 1.390625 -1.640625 C 1.398438 -1.390625 1.488281 -1.175781 1.65625 -1 C 1.832031 -0.820312 2.070312 -0.734375 2.375 -0.734375 C 2.644531 -0.734375 2.859375 -0.796875 3.015625 -0.921875 C 3.171875 -1.054688 3.25 -1.226562 3.25 -1.4375 C 3.25 -1.664062 3.175781 -1.835938 3.03125 -1.953125 C 2.894531 -2.078125 2.710938 -2.175781 2.484375 -2.25 C 2.253906 -2.332031 2.015625 -2.421875 1.765625 -2.515625 C 1.335938 -2.660156 1.015625 -2.847656 0.796875 -3.078125 C 0.578125 -3.304688 0.46875 -3.609375 0.46875 -3.984375 C 0.457031 -4.304688 0.53125 -4.582031 0.6875 -4.8125 C 0.851562 -5.039062 1.070312 -5.21875 1.34375 -5.34375 C 1.625 -5.476562 1.941406 -5.546875 2.296875 -5.546875 C 2.660156 -5.546875 2.976562 -5.476562 3.25 -5.34375 C 3.53125 -5.21875 3.75 -5.035156 3.90625 -4.796875 C 4.0625 -4.566406 4.144531 -4.289062 4.15625 -3.96875 L 3.09375 -3.96875 C 3.09375 -4.15625 3.019531 -4.320312 2.875 -4.46875 C 2.726562 -4.625 2.53125 -4.703125 2.28125 -4.703125 C 2.0625 -4.703125 1.878906 -4.644531 1.734375 -4.53125 C 1.585938 -4.425781 1.515625 -4.265625 1.515625 -4.046875 C 1.515625 -3.867188 1.570312 -3.726562 1.6875 -3.625 C 1.800781 -3.519531 1.953125 -3.429688 2.140625 -3.359375 C 2.335938 -3.285156 2.566406 -3.207031 2.828125 -3.125 C 3.097656 -3.03125 3.34375 -2.921875 3.5625 -2.796875 C 3.78125 -2.671875 3.957031 -2.503906 4.09375 -2.296875 C 4.226562 -2.085938 4.296875 -1.828125 4.296875 -1.515625 C 4.296875 -1.222656 4.222656 -0.953125 4.078125 -0.703125 C 3.941406 -0.460938 3.726562 -0.269531 3.4375 -0.125 C 3.15625 0.0195312 2.804688 0.09375 2.390625 0.09375 Z M 2.390625 0.09375 "/></g></g></g><g fill="#ffffff" fill-opacity="1"><g transform="translate(19.452197, 54.504503)"><g><path d="M 0.53125 0 L 0.53125 -5.453125 L 1.53125 -5.453125 L 1.53125 -3.1875 L 3.96875 -3.1875 L 3.96875 -5.453125 L 4.96875 -5.453125 L 4.96875 0 L 3.96875 0 L 3.96875 -2.375 L 1.53125 -2.375 L 1.53125 0 Z M 0.53125 0 "/></g></g></g><g fill="#ffffff" fill-opacity="1"><g transform="translate(26.143888, 54.504503)"><g><path d="M 0.53125 0 L 0.53125 -5.453125 L 1.53125 -5.453125 L 1.53125 0 Z M 0.53125 0 "/></g></g></g><g fill="#ffffff" fill-opacity="1"><g transform="translate(29.400743, 54.504503)"><g><path d="M 0.53125 0 L 0.53125 -5.453125 L 1.53125 -5.453125 L 4.078125 -1.609375 L 4.078125 -5.453125 L 5.078125 -5.453125 L 5.078125 0 L 4.078125 0 L 1.53125 -3.828125 L 1.53125 0 Z M 0.53125 0 "/></g></g></g><g fill="#ffffff" fill-opacity="1"><g transform="translate(36.206522, 54.504503)"><g><path d="M 2.3125 0.09375 C 1.914062 0.09375 1.566406 0.0195312 1.265625 -0.125 C 0.972656 -0.269531 0.742188 -0.472656 0.578125 -0.734375 C 0.421875 -0.992188 0.34375 -1.296875 0.34375 -1.640625 L 1.03125 -1.640625 C 1.03125 -1.421875 1.078125 -1.222656 1.171875 -1.046875 C 1.273438 -0.867188 1.421875 -0.722656 1.609375 -0.609375 C 1.796875 -0.503906 2.03125 -0.453125 2.3125 -0.453125 C 2.675781 -0.453125 2.957031 -0.539062 3.15625 -0.71875 C 3.363281 -0.894531 3.46875 -1.117188 3.46875 -1.390625 C 3.46875 -1.609375 3.421875 -1.78125 3.328125 -1.90625 C 3.234375 -2.039062 3.109375 -2.148438 2.953125 -2.234375 C 2.796875 -2.316406 2.613281 -2.390625 2.40625 -2.453125 C 2.195312 -2.515625 1.984375 -2.582031 1.765625 -2.65625 C 1.347656 -2.800781 1.035156 -2.984375 0.828125 -3.203125 C 0.628906 -3.421875 0.53125 -3.703125 0.53125 -4.046875 C 0.519531 -4.335938 0.582031 -4.59375 0.71875 -4.8125 C 0.863281 -5.039062 1.066406 -5.21875 1.328125 -5.34375 C 1.585938 -5.476562 1.890625 -5.546875 2.234375 -5.546875 C 2.585938 -5.546875 2.890625 -5.476562 3.140625 -5.34375 C 3.398438 -5.21875 3.597656 -5.039062 3.734375 -4.8125 C 3.878906 -4.582031 3.957031 -4.320312 3.96875 -4.03125 L 3.28125 -4.03125 C 3.28125 -4.175781 3.238281 -4.320312 3.15625 -4.46875 C 3.082031 -4.625 2.96875 -4.75 2.8125 -4.84375 C 2.65625 -4.9375 2.457031 -4.984375 2.21875 -4.984375 C 1.925781 -4.984375 1.679688 -4.90625 1.484375 -4.75 C 1.296875 -4.59375 1.203125 -4.378906 1.203125 -4.109375 C 1.203125 -3.878906 1.269531 -3.703125 1.40625 -3.578125 C 1.539062 -3.453125 1.722656 -3.347656 1.953125 -3.265625 C 2.191406 -3.179688 2.46875 -3.085938 2.78125 -2.984375 C 3.039062 -2.890625 3.273438 -2.78125 3.484375 -2.65625 C 3.691406 -2.53125 3.851562 -2.367188 3.96875 -2.171875 C 4.082031 -1.984375 4.140625 -1.734375 4.140625 -1.421875 C 4.140625 -1.160156 4.070312 -0.914062 3.9375 -0.6875 C 3.8125 -0.457031 3.609375 -0.269531 3.328125 -0.125 C 3.054688 0.0195312 2.71875 0.09375 2.3125 0.09375 Z M 2.3125 0.09375 "/></g></g></g><g fill="#ffffff" fill-opacity="1"><g transform="translate(41.903509, 54.504503)"><g><path d="M 0.578125 0 L 0.578125 -5.453125 L 3.9375 -5.453125 L 3.9375 -4.90625 L 1.234375 -4.90625 L 1.234375 -3.015625 L 3.71875 -3.015625 L 3.71875 -2.484375 L 1.234375 -2.484375 L 1.234375 -0.53125 L 3.9375 -0.53125 L 3.9375 0 Z M 0.578125 0 "/></g></g></g><g fill="#ffffff" fill-opacity="1"><g transform="translate(47.491703, 54.504503)"><g><path d="M 0.578125 0 L 0.578125 -5.453125 L 1.234375 -5.453125 L 1.234375 -2.984375 L 3.5 -5.453125 L 4.328125 -5.453125 L 2.296875 -3.28125 L 4.359375 0 L 3.5625 0 L 1.84375 -2.765625 L 1.234375 -2.125 L 1.234375 0 Z M 0.578125 0 "/></g></g></g><g fill="#ffffff" fill-opacity="1"><g transform="translate(53.219775, 54.504503)"><g><path d="M 0.234375 0 L 2.234375 -5.453125 L 2.9375 -5.453125 L 4.9375 0 L 4.234375 0 L 3.75 -1.40625 L 1.421875 -1.40625 L 0.921875 0 Z M 1.625 -1.9375 L 3.546875 -1.9375 L 2.578125 -4.625 Z M 1.625 -1.9375 "/></g></g></g><g fill="#ffffff" fill-opacity="1"><g transform="translate(59.58508, 54.504503)"><g><path d="M 0.578125 0 L 0.578125 -5.453125 L 1.234375 -5.453125 L 1.234375 0 Z M 0.578125 0 "/></g></g></g></svg>