<svg xmlns="http://www.w3.org/2000/svg" xmlns:xlink="http://www.w3.org/1999/xlink" width="500" zoomAndPan="magnify" viewBox="0 0 375 374.999991" height="500" preserveAspectRatio="xMidYMid meet" version="1.0"><defs><g/><clipPath id="a473253982"><path d="M 104.753906 111.207031 L 270.503906 111.207031 L 270.503906 281 L 104.753906 281 Z M 104.753906 111.207031 " clip-rule="nonzero"/></clipPath></defs><g clip-path="url(#a473253982)"><path fill="#ffffff" d="M 190.921875 273.671875 C 198.90625 273.832031 206.464844 271.796875 214.019531 269.496094 C 214.769531 271.421875 215.519531 273.351562 216.324219 275.332031 C 197.191406 282.027344 178.0625 281.867188 158.929688 275.226562 C 159.039062 274.90625 159.089844 274.636719 159.199219 274.371094 C 159.789062 272.710938 160.324219 271.046875 160.96875 269.28125 C 168.578125 271.636719 176.1875 273.621094 184.277344 273.726562 C 184.277344 273.457031 184.277344 273.191406 184.277344 272.976562 C 184.277344 269.335938 184.277344 265.640625 184.226562 261.996094 C 184.226562 260.605469 183.527344 259.855469 182.132812 259.640625 C 179.132812 259.210938 176.078125 258.890625 173.132812 258.246094 C 161.664062 255.570312 151.589844 250.265625 143.070312 242.179688 C 139.640625 238.964844 136.746094 235.324219 133.90625 231.628906 C 133.796875 231.46875 133.636719 231.308594 133.476562 231.09375 C 132.136719 231.84375 130.796875 232.59375 129.457031 233.34375 C 127.472656 234.414062 125.546875 235.539062 123.5625 236.609375 C 122.222656 237.359375 122.0625 238.003906 123.078125 239.234375 C 126.9375 243.894531 130.796875 248.554688 134.601562 253.214844 C 135.40625 254.175781 136.15625 255.140625 137.011719 256.105469 C 135.835938 257.496094 134.707031 258.890625 133.476562 260.335938 C 127.097656 254.820312 121.527344 248.605469 116.972656 241.589844 C 110.808594 232.109375 106.894531 221.773438 104.753906 210.632812 C 106.628906 210.257812 108.449219 209.882812 110.378906 209.507812 C 112.953125 217.113281 115.578125 224.664062 118.148438 232.324219 C 122.167969 230.074219 126.132812 227.824219 130.152344 225.574219 C 129.617188 224.289062 129.082031 223.003906 128.546875 221.773438 C 126.457031 216.84375 124.792969 211.8125 123.832031 206.5625 C 122.8125 200.9375 122.597656 195.3125 123.078125 189.636719 C 123.507812 184.335938 124.527344 179.085938 126.1875 173.996094 C 126.882812 171.910156 127.796875 169.925781 128.546875 167.835938 C 128.707031 167.355469 128.761719 166.820312 128.761719 166.339844 C 128.761719 165.695312 128.386719 165.214844 127.796875 164.890625 C 124.792969 163.230469 121.847656 161.570312 118.738281 159.804688 C 118.148438 160.980469 117.507812 162.105469 116.972656 163.285156 C 114.128906 169.175781 112.308594 175.335938 111.023438 181.710938 C 110.914062 182.351562 110.539062 182.460938 110.058594 182.351562 C 108.933594 182.085938 107.808594 181.871094 106.683594 181.496094 C 105.449219 181.066406 104.96875 180.371094 105.234375 179.085938 C 105.769531 176.621094 106.304688 174.105469 107.003906 171.695312 C 110.808594 158.734375 117.507812 147.429688 126.9375 137.738281 C 128.707031 135.914062 130.636719 134.148438 132.511719 132.378906 C 132.671875 132.21875 132.832031 132.113281 132.992188 132.003906 C 133.367188 131.792969 133.691406 131.792969 134.011719 132.21875 C 134.976562 133.453125 136.046875 134.628906 137.121094 135.863281 C 131.976562 141.859375 126.722656 147.859375 121.472656 153.859375 C 125.222656 156.054688 128.867188 158.195312 132.617188 160.394531 C 144.890625 141.96875 162.308594 132.328125 184.171875 130.183594 C 184.171875 126.222656 184.171875 122.257812 184.171875 118.242188 C 176.1875 118.242188 168.578125 120.222656 160.96875 122.6875 C 160.378906 121.132812 159.789062 119.632812 159.304688 118.082031 C 159.089844 117.382812 159.949219 116.417969 160.804688 116.207031 C 164.023438 115.457031 167.183594 114.597656 170.398438 113.957031 C 173.988281 113.207031 177.632812 112.511719 181.222656 111.972656 C 185.136719 111.386719 189.101562 111.4375 193.011719 111.761719 C 199.070312 112.242188 205.070312 113.3125 210.910156 114.921875 C 212.839844 115.457031 214.714844 116.042969 216.644531 116.6875 C 215.894531 118.667969 215.144531 120.597656 214.339844 122.578125 C 206.730469 120.222656 199.070312 118.242188 190.976562 118.242188 C 190.976562 118.453125 190.921875 118.667969 190.921875 118.828125 C 190.921875 122.363281 190.921875 125.953125 190.921875 129.488281 C 190.921875 130.023438 191.085938 130.183594 191.566406 130.238281 C 204.800781 131.523438 217.019531 135.59375 227.632812 143.84375 C 233.527344 148.394531 238.457031 153.859375 242.636719 160.019531 C 242.742188 160.179688 242.851562 160.285156 242.957031 160.445312 C 243.066406 160.445312 243.117188 160.394531 243.171875 160.394531 C 246.171875 158.679688 249.121094 156.964844 252.121094 155.25 C 252.605469 154.984375 252.710938 154.660156 252.710938 154.179688 C 252.65625 153.429688 252.390625 152.734375 251.90625 152.089844 C 247.886719 146.46875 243.492188 141.164062 238.992188 135.96875 C 238.671875 135.59375 238.671875 135.328125 238.9375 134.953125 C 239.742188 133.828125 240.492188 132.703125 241.351562 131.523438 C 249.175781 137.253906 255.070312 144.644531 259.945312 152.789062 C 265.195312 161.570312 269.054688 170.890625 270.503906 181.226562 C 268.519531 181.550781 266.589844 181.816406 264.554688 182.136719 C 262.894531 174.425781 260.589844 166.925781 256.730469 159.964844 C 256.515625 160.070312 256.355469 160.125 256.195312 160.230469 C 253.195312 161.945312 250.246094 163.660156 247.246094 165.375 C 246.816406 165.640625 246.710938 165.855469 246.871094 166.339844 C 248.15625 170.835938 249.496094 175.28125 250.675781 179.78125 C 252.28125 185.886719 252.871094 192.101562 252.65625 198.421875 C 252.335938 206.882812 250.300781 214.972656 246.601562 222.628906 C 246.335938 223.164062 246.171875 223.703125 246.011719 224.238281 C 245.746094 225.09375 246.066406 225.738281 246.710938 226.273438 C 246.976562 226.488281 247.246094 226.648438 247.511719 226.808594 C 250.460938 228.46875 253.460938 230.128906 256.410156 231.789062 C 256.515625 231.84375 256.625 231.894531 256.835938 232.003906 C 260.589844 225.09375 263 217.703125 264.554688 209.9375 C 266.484375 210.203125 268.414062 210.527344 270.394531 210.792969 C 270.289062 211.8125 270.179688 212.773438 270.019531 213.792969 C 268.949219 220.328125 266.699219 226.433594 263.804688 232.324219 C 259.464844 241.269531 253.78125 249.304688 246.65625 256.265625 C 245.15625 257.765625 243.546875 259.105469 241.941406 260.605469 C 240.707031 259.160156 239.527344 257.765625 238.296875 256.375 C 239.367188 255.140625 240.386719 253.910156 241.402344 252.675781 C 244.996094 248.394531 248.585938 244.054688 252.175781 239.769531 C 253.621094 238.054688 253.460938 237.414062 251.480469 236.339844 C 248.960938 234.949219 246.496094 233.503906 244.03125 232.058594 C 243.867188 231.949219 243.707031 231.84375 243.546875 231.789062 C 242.476562 231.199219 241.832031 231.359375 241.082031 232.324219 C 240.226562 233.449219 239.421875 234.628906 238.511719 235.753906 C 230.738281 245.554688 220.824219 252.355469 209.089844 256.535156 C 204.105469 258.300781 198.90625 259.371094 193.601562 259.640625 C 193.121094 259.695312 192.636719 259.746094 192.15625 259.855469 C 191.296875 260.015625 190.976562 260.390625 190.921875 261.246094 C 190.871094 261.730469 190.816406 262.210938 190.816406 262.640625 C 190.816406 266.226562 190.816406 269.761719 190.816406 273.351562 C 190.871094 273.351562 190.871094 273.460938 190.921875 273.671875 Z M 246.011719 195.957031 C 246.066406 195.851562 246.066406 195.796875 246.066406 195.742188 C 246.066406 195.527344 246.066406 195.367188 246.066406 195.152344 C 246.121094 190.226562 245.53125 185.351562 244.296875 180.53125 C 241.511719 169.820312 236.257812 160.554688 228.167969 152.949219 C 221.84375 147.003906 214.503906 142.71875 206.355469 139.71875 C 196.496094 136.078125 186.476562 135.273438 176.1875 137.628906 C 169.273438 139.183594 162.949219 142.023438 156.949219 145.769531 C 145.425781 152.894531 137.226562 162.75 132.832031 175.65625 C 130.691406 181.976562 129.617188 188.566406 129.296875 195.207031 C 129.296875 195.476562 129.296875 195.6875 129.296875 195.957031 C 168.253906 195.957031 207.105469 195.957031 246.011719 195.957031 Z M 175.542969 202.917969 C 175.488281 203.832031 175.4375 204.6875 175.4375 205.542969 C 175.4375 218.988281 175.4375 232.484375 175.4375 245.929688 C 175.4375 247.375 175.382812 248.820312 175.4375 250.265625 C 175.488281 251.605469 175.972656 252.035156 177.3125 252.300781 C 182.886719 253.265625 188.511719 253.589844 194.136719 252.945312 C 195.476562 252.785156 196.765625 252.570312 198.050781 252.300781 C 199.070312 252.089844 199.605469 251.390625 199.765625 250.375 C 199.820312 250.054688 199.820312 249.679688 199.820312 249.355469 C 199.820312 246.195312 199.820312 243.035156 199.820312 239.875 C 199.820312 228.574219 199.820312 217.273438 199.820312 205.972656 C 199.820312 204.957031 199.710938 203.9375 199.660156 202.917969 C 191.511719 202.917969 183.582031 202.917969 175.542969 202.917969 Z M 206.089844 250.160156 C 207.054688 249.839844 207.964844 249.679688 208.714844 249.25 C 213 247 217.289062 244.695312 221.523438 242.339844 C 222.539062 241.804688 223.128906 240.894531 223.183594 239.714844 C 223.238281 239.019531 223.238281 238.375 223.238281 237.679688 C 223.238281 233.449219 223.238281 229.273438 223.238281 225.039062 C 223.238281 218.453125 223.238281 211.863281 223.238281 205.277344 C 223.238281 204.527344 223.183594 203.722656 223.128906 202.917969 C 217.449219 202.917969 211.769531 202.917969 206.089844 202.917969 C 206.089844 218.613281 206.089844 234.304688 206.089844 250.160156 Z M 151.804688 202.972656 C 151.804688 203.292969 151.804688 203.507812 151.804688 203.722656 C 151.804688 213.847656 151.804688 224.023438 151.804688 234.144531 C 151.804688 235.324219 151.855469 236.449219 151.910156 237.628906 C 152.019531 239.984375 152.929688 241.859375 154.964844 243.089844 C 155.285156 243.304688 155.609375 243.519531 155.929688 243.734375 C 160.003906 246.195312 164.398438 248.125 168.738281 250.105469 C 168.792969 250.160156 168.898438 250.105469 168.953125 250.105469 C 168.953125 234.359375 168.953125 218.667969 168.953125 202.972656 C 163.269531 202.972656 157.589844 202.972656 151.804688 202.972656 Z M 229.5625 234.628906 C 229.9375 234.359375 230.257812 234.144531 230.523438 233.929688 C 231.542969 232.914062 232.617188 231.949219 233.527344 230.878906 C 238.457031 224.664062 241.886719 217.648438 244.191406 210.042969 C 244.832031 207.953125 245.316406 205.8125 245.101562 203.617188 C 245.046875 203.082031 244.886719 202.917969 244.351562 202.917969 C 239.636719 202.917969 234.917969 202.917969 230.203125 202.917969 C 229.988281 202.917969 229.773438 202.917969 229.5625 202.972656 C 229.5625 213.472656 229.5625 223.96875 229.5625 234.628906 Z M 145.371094 233.824219 C 145.371094 223.433594 145.371094 213.203125 145.371094 202.917969 C 140.28125 202.917969 135.191406 202.917969 130.101562 202.917969 C 131.921875 214.808594 136.746094 225.148438 145.371094 233.824219 Z M 145.746094 178.390625 C 146.285156 181.066406 147.890625 182.675781 150.570312 183.210938 C 154.320312 183.960938 158.019531 183.960938 161.71875 182.996094 C 167.933594 181.386719 172.597656 177.585938 175.972656 172.285156 C 178.277344 168.640625 178.8125 164.625 177.742188 160.445312 C 176.238281 154.660156 171.308594 150.804688 165.414062 150.964844 C 160.859375 151.074219 156.734375 152.574219 153.195312 155.519531 C 147.730469 160.070312 145.320312 166.125 145.105469 173.835938 C 145.265625 174.90625 145.425781 176.675781 145.746094 178.390625 Z M 222.328125 183.746094 C 226.398438 183.53125 229.078125 181.28125 230.097656 177.316406 C 230.6875 174.855469 230.578125 172.390625 230.203125 169.875 C 229.292969 163.714844 226.558594 158.679688 221.46875 154.984375 C 218.039062 152.464844 214.394531 150.753906 210.054688 150.914062 C 207.160156 151.019531 204.480469 151.714844 202.285156 153.644531 C 197.78125 157.609375 196.550781 162.640625 197.890625 168.375 C 198.746094 171.910156 200.996094 174.640625 203.515625 177.105469 C 208.285156 181.761719 214.128906 183.636719 220.664062 183.746094 C 221.199219 183.746094 221.789062 183.746094 222.328125 183.746094 Z M 187.546875 190.546875 C 191.136719 190.492188 194.085938 187.546875 194.03125 184.066406 C 194.03125 180.746094 190.707031 177.425781 187.441406 177.480469 C 184.011719 177.53125 180.902344 180.691406 180.902344 184.066406 C 181.007812 187.816406 183.796875 190.601562 187.546875 190.546875 Z M 187.546875 190.546875 " fill-opacity="1" fill-rule="nonzero"/></g><g fill="#ffffff" fill-opacity="1"><g transform="translate(87.175231, 182.195617)"><g><path d="M 4.359375 -14.171875 C 3.566406 -11.242188 2.609375 -8.96875 1.484375 -7.34375 C 0.367188 -5.726562 -0.863281 -4.601562 -2.21875 -3.96875 C -3.570312 -3.332031 -5.007812 -3.050781 -6.53125 -3.125 L -3.90625 -12.765625 C -2.695312 -13.191406 -1.878906 -14.1875 -1.453125 -15.75 C -1.023438 -17.300781 -1.222656 -18.578125 -2.046875 -19.578125 C -2.140625 -19.648438 -2.222656 -19.703125 -2.296875 -19.734375 C -2.566406 -19.804688 -2.863281 -19.503906 -3.1875 -18.828125 C -3.519531 -18.148438 -3.921875 -17.109375 -4.390625 -15.703125 C -4.960938 -13.921875 -5.671875 -12.082031 -6.515625 -10.1875 C -8.390625 -5.945312 -10.757812 -4.21875 -13.625 -5 C -13.875 -5.070312 -14.128906 -5.160156 -14.390625 -5.265625 C -15.742188 -5.972656 -16.84375 -6.941406 -17.6875 -8.171875 C -18.53125 -9.410156 -19.019531 -11.007812 -19.15625 -12.96875 C -19.300781 -14.9375 -18.976562 -17.382812 -18.1875 -20.3125 C -17.382812 -23.226562 -16.425781 -25.492188 -15.3125 -27.109375 C -14.195312 -28.734375 -12.960938 -29.859375 -11.609375 -30.484375 C -10.253906 -31.117188 -8.8125 -31.40625 -7.28125 -31.34375 L -9.90625 -21.71875 C -11.125 -21.28125 -11.945312 -20.285156 -12.375 -18.734375 C -12.800781 -17.171875 -12.597656 -15.894531 -11.765625 -14.90625 C -11.703125 -14.832031 -11.632812 -14.785156 -11.5625 -14.765625 C -11.320312 -14.703125 -11.050781 -15 -10.75 -15.65625 C -10.445312 -16.3125 -10.066406 -17.296875 -9.609375 -18.609375 C -9.160156 -19.929688 -8.640625 -21.328125 -8.046875 -22.796875 C -7.460938 -24.265625 -6.765625 -25.597656 -5.953125 -26.796875 C -5.148438 -27.992188 -4.207031 -28.847656 -3.125 -29.359375 C -2.289062 -29.753906 -1.359375 -29.8125 -0.328125 -29.53125 C -0.0351562 -29.445312 0.265625 -29.335938 0.578125 -29.203125 C 1.921875 -28.484375 3.015625 -27.507812 3.859375 -26.28125 C 4.703125 -25.050781 5.195312 -23.453125 5.34375 -21.484375 C 5.488281 -19.523438 5.160156 -17.085938 4.359375 -14.171875 Z M 4.359375 -14.171875 "/></g></g></g><g fill="#ffffff" fill-opacity="1"><g transform="translate(93.468474, 155.906087)"><g><path d="M 17.640625 -28.03125 L 12.640625 -20.078125 L 4.984375 -24.890625 L -1.3125 -14.890625 L 6.34375 -10.078125 L 1.328125 -2.109375 L -17.640625 -14.046875 L -12.625 -22.015625 L -4.96875 -17.1875 L 1.328125 -27.1875 L -6.328125 -32.015625 L -1.328125 -39.96875 Z M 17.640625 -28.03125 "/></g></g></g><g fill="#ffffff" fill-opacity="1"><g transform="translate(112.021023, 128.204271)"><g><path d="M 8.4375 -8.390625 L 1.765625 -1.765625 L -14.046875 -17.671875 L -7.375 -24.296875 Z M 8.4375 -8.390625 "/></g></g></g><g fill="#ffffff" fill-opacity="1"><g transform="translate(119.572488, 118.325567)"><g><path d="M 30.609375 -18.5 L 21.03125 -12.71875 L 2.34375 -19.140625 L 10.1875 -6.15625 L 2.140625 -1.296875 L -9.453125 -20.484375 L 0.125 -26.265625 L 18.765625 -19.90625 L 10.96875 -32.828125 L 19.015625 -37.6875 Z M 30.609375 -18.5 "/></g></g></g><g fill="#ffffff" fill-opacity="1"><g transform="translate(149.353399, 99.548126)"><g><path d="M 38.59375 -7.46875 L 26.59375 -5.15625 L 15.734375 -10.6875 L 10.984375 -5.90625 L 11.6875 -2.265625 L 2.453125 -0.46875 L -1.8125 -22.484375 L 7.421875 -24.28125 L 9.390625 -14.09375 L 22.234375 -27.15625 L 34.328125 -29.484375 L 20.65625 -15.671875 Z M 38.59375 -7.46875 "/></g></g></g><g fill="#ffffff" fill-opacity="1"><g transform="translate(186.251093, 93.892636)"><g/></g></g><g fill="#ffffff" fill-opacity="1"><g transform="translate(192.629886, 92.981514)"><g><path d="M 14.4375 3.328125 C 11.46875 2.742188 9.132812 1.953125 7.4375 0.953125 C 5.738281 -0.0351562 4.523438 -1.179688 3.796875 -2.484375 C 3.066406 -3.796875 2.679688 -5.210938 2.640625 -6.734375 L 12.4375 -4.8125 C 12.957031 -3.625 14.007812 -2.875 15.59375 -2.5625 C 17.175781 -2.25 18.4375 -2.546875 19.375 -3.453125 C 19.457031 -3.535156 19.503906 -3.617188 19.515625 -3.703125 C 19.578125 -3.984375 19.253906 -4.265625 18.546875 -4.546875 C 17.847656 -4.828125 16.773438 -5.144531 15.328125 -5.5 C 13.523438 -5.945312 11.644531 -6.519531 9.6875 -7.21875 C 5.332031 -8.800781 3.441406 -11.050781 4.015625 -13.96875 C 4.054688 -14.207031 4.117188 -14.460938 4.203125 -14.734375 C 4.828125 -16.128906 5.722656 -17.289062 6.890625 -18.21875 C 8.054688 -19.15625 9.613281 -19.765625 11.5625 -20.046875 C 13.507812 -20.328125 15.96875 -20.175781 18.9375 -19.59375 C 21.914062 -19.007812 24.25 -18.21875 25.9375 -17.21875 C 27.632812 -16.21875 28.847656 -15.066406 29.578125 -13.765625 C 30.316406 -12.460938 30.703125 -11.046875 30.734375 -9.515625 L 20.9375 -11.453125 C 20.414062 -12.628906 19.363281 -13.375 17.78125 -13.6875 C 16.195312 -14 14.9375 -13.707031 14 -12.8125 C 13.945312 -12.738281 13.914062 -12.664062 13.90625 -12.59375 C 13.851562 -12.34375 14.160156 -12.085938 14.828125 -11.828125 C 15.503906 -11.578125 16.515625 -11.273438 17.859375 -10.921875 C 19.210938 -10.578125 20.640625 -10.160156 22.140625 -9.671875 C 23.648438 -9.191406 25.03125 -8.585938 26.28125 -7.859375 C 27.539062 -7.140625 28.460938 -6.265625 29.046875 -5.234375 C 29.515625 -4.421875 29.644531 -3.488281 29.4375 -2.4375 C 29.375 -2.144531 29.285156 -1.835938 29.171875 -1.515625 C 28.554688 -0.128906 27.660156 1.03125 26.484375 1.96875 C 25.316406 2.90625 23.757812 3.507812 21.8125 3.78125 C 19.875 4.0625 17.414062 3.910156 14.4375 3.328125 Z M 14.4375 3.328125 "/></g></g></g><g fill="#ffffff" fill-opacity="1"><g transform="translate(219.330574, 97.798706)"><g><path d="M 26.328125 13.296875 L 2.234375 1.125 L 12.34375 -18.890625 L 35.34375 -7.265625 L 32.84375 -2.3125 L 18.234375 -9.6875 L 16.640625 -6.546875 L 28.984375 -0.3125 L 27.046875 3.53125 L 14.703125 -2.703125 L 13.125 0.421875 L 28.828125 8.34375 Z M 26.328125 13.296875 "/></g></g></g><g fill="#ffffff" fill-opacity="1"><g transform="translate(244.837917, 109.398933)"><g><path d="M 27.78125 27.8125 L 19.140625 19.171875 L 17.65625 7.0625 L 11.03125 5.8125 L 8.40625 8.421875 L 1.765625 1.765625 L 17.625 -14.078125 L 24.265625 -7.421875 L 16.9375 -0.09375 L 34.9375 3.265625 L 43.640625 11.96875 L 24.53125 8.359375 Z M 27.78125 27.8125 "/></g></g></g><g fill="#ffffff" fill-opacity="1"><g transform="translate(270.874306, 134.905471)"><g><path d="M 15.828125 34.171875 L 11.828125 25.515625 L 14.265625 22.0625 L 8.3125 9.234375 L 4.109375 8.859375 L 0.09375 0.21875 L 26.453125 3.8125 L 30.125 11.734375 Z M 17.96875 16.859375 L 22.5 10.46875 L 14.6875 9.78125 Z M 17.96875 16.859375 "/></g></g></g><g fill="#ffffff" fill-opacity="1"><g transform="translate(284.782199, 167.561753)"><g><path d="M 2.328125 11.671875 L 0.484375 2.453125 L 22.46875 -1.9375 L 24.3125 7.28125 Z M 2.328125 11.671875 "/></g></g></g><g fill="#ffffff" fill-opacity="1"><g transform="translate(147.046869, 306.241211)"><g><path d="M 11.0625 0 L 0.9375 0 L 0.9375 -8.40625 L 10.59375 -8.40625 L 10.59375 -6.328125 L 4.46875 -6.328125 L 4.46875 -5.015625 L 9.65625 -5.015625 L 9.65625 -3.390625 L 4.46875 -3.390625 L 4.46875 -2.078125 L 11.0625 -2.078125 Z M 11.0625 0 "/></g></g><g transform="translate(158.578118, 306.241211)"><g><path d="M 5.5625 0.1875 C 4.414062 0.1875 3.492188 0.0664062 2.796875 -0.171875 C 2.109375 -0.421875 1.582031 -0.757812 1.21875 -1.1875 C 0.851562 -1.613281 0.609375 -2.109375 0.484375 -2.671875 L 4.234375 -2.671875 C 4.503906 -2.273438 4.945312 -2.078125 5.5625 -2.078125 C 6.164062 -2.078125 6.601562 -2.273438 6.875 -2.671875 C 6.90625 -2.710938 6.921875 -2.75 6.921875 -2.78125 C 6.921875 -2.882812 6.78125 -2.960938 6.5 -3.015625 C 6.21875 -3.066406 5.800781 -3.109375 5.25 -3.140625 C 4.550781 -3.171875 3.816406 -3.242188 3.046875 -3.359375 C 1.328125 -3.617188 0.46875 -4.304688 0.46875 -5.421875 C 0.46875 -5.515625 0.472656 -5.613281 0.484375 -5.71875 C 0.609375 -6.28125 0.851562 -6.773438 1.21875 -7.203125 C 1.582031 -7.628906 2.109375 -7.960938 2.796875 -8.203125 C 3.492188 -8.453125 4.414062 -8.578125 5.5625 -8.578125 C 6.695312 -8.578125 7.609375 -8.453125 8.296875 -8.203125 C 8.992188 -7.960938 9.523438 -7.628906 9.890625 -7.203125 C 10.253906 -6.773438 10.5 -6.28125 10.625 -5.71875 L 6.875 -5.71875 C 6.601562 -6.125 6.164062 -6.328125 5.5625 -6.328125 C 4.945312 -6.328125 4.503906 -6.125 4.234375 -5.71875 C 4.210938 -5.6875 4.203125 -5.660156 4.203125 -5.640625 C 4.203125 -5.546875 4.332031 -5.472656 4.59375 -5.421875 C 4.863281 -5.378906 5.257812 -5.34375 5.78125 -5.3125 C 6.300781 -5.28125 6.859375 -5.226562 7.453125 -5.15625 C 8.046875 -5.09375 8.597656 -4.972656 9.109375 -4.796875 C 9.617188 -4.617188 10.019531 -4.363281 10.3125 -4.03125 C 10.539062 -3.769531 10.65625 -3.4375 10.65625 -3.03125 C 10.65625 -2.914062 10.644531 -2.796875 10.625 -2.671875 C 10.5 -2.109375 10.253906 -1.613281 9.890625 -1.1875 C 9.523438 -0.757812 8.992188 -0.421875 8.296875 -0.171875 C 7.609375 0.0664062 6.695312 0.1875 5.5625 0.1875 Z M 5.5625 0.1875 "/></g></g><g transform="translate(169.699211, 306.241211)"><g><path d="M 7.171875 0 L 3.640625 0 L 3.640625 -6.328125 L 0.359375 -6.328125 L 0.359375 -8.40625 L 10.46875 -8.40625 L 10.46875 -6.328125 L 7.171875 -6.328125 Z M 7.171875 0 "/></g></g><g transform="translate(180.515617, 306.241211)"><g/></g><g transform="translate(183.492179, 306.241211)"><g><path d="M 10.359375 0 L 0.46875 0 L 0.46875 -2.078125 C 0.46875 -2.566406 0.609375 -2.972656 0.890625 -3.296875 C 1.179688 -3.617188 1.550781 -3.875 2 -4.0625 C 2.445312 -4.257812 2.929688 -4.414062 3.453125 -4.53125 C 3.972656 -4.65625 4.476562 -4.753906 4.96875 -4.828125 C 5.601562 -4.929688 6.113281 -5.046875 6.5 -5.171875 C 6.78125 -5.265625 6.921875 -5.394531 6.921875 -5.5625 C 6.921875 -5.613281 6.910156 -5.671875 6.890625 -5.734375 C 6.617188 -6.128906 6.175781 -6.328125 5.5625 -6.328125 C 4.957031 -6.328125 4.515625 -6.128906 4.234375 -5.734375 L 0.5 -5.734375 C 0.625 -6.285156 0.863281 -6.773438 1.21875 -7.203125 C 1.582031 -7.640625 2.113281 -7.976562 2.8125 -8.21875 C 3.507812 -8.457031 4.425781 -8.578125 5.5625 -8.578125 C 6.695312 -8.578125 7.613281 -8.457031 8.3125 -8.21875 C 9.007812 -7.976562 9.535156 -7.640625 9.890625 -7.203125 C 10.253906 -6.773438 10.5 -6.285156 10.625 -5.734375 C 10.644531 -5.597656 10.65625 -5.472656 10.65625 -5.359375 C 10.65625 -4.796875 10.441406 -4.328125 10.015625 -3.953125 C 9.585938 -3.585938 9.003906 -3.3125 8.265625 -3.125 C 7.523438 -2.945312 6.804688 -2.804688 6.109375 -2.703125 C 5.753906 -2.648438 5.429688 -2.597656 5.140625 -2.546875 C 4.859375 -2.492188 4.632812 -2.429688 4.46875 -2.359375 C 4.300781 -2.285156 4.21875 -2.191406 4.21875 -2.078125 L 10.359375 -2.078125 Z M 10.359375 0 "/></g></g><g transform="translate(194.619132, 306.241211)"><g><path d="M 5.5625 0.1875 C 3.757812 0.1875 2.4375 -0.242188 1.59375 -1.109375 C 0.84375 -1.859375 0.46875 -2.890625 0.46875 -4.203125 C 0.46875 -5.503906 0.84375 -6.535156 1.59375 -7.296875 C 2.4375 -8.148438 3.757812 -8.578125 5.5625 -8.578125 C 7.363281 -8.578125 8.6875 -8.148438 9.53125 -7.296875 C 10.289062 -6.535156 10.671875 -5.503906 10.671875 -4.203125 C 10.671875 -2.890625 10.289062 -1.859375 9.53125 -1.109375 C 8.6875 -0.242188 7.363281 0.1875 5.5625 0.1875 Z M 5.5625 -2.078125 C 6.207031 -2.078125 6.648438 -2.332031 6.890625 -2.84375 C 7.046875 -3.195312 7.125 -3.648438 7.125 -4.203125 C 7.125 -4.753906 7.046875 -5.207031 6.890625 -5.5625 C 6.648438 -6.070312 6.207031 -6.328125 5.5625 -6.328125 C 4.914062 -6.328125 4.472656 -6.070312 4.234375 -5.5625 C 4.078125 -5.207031 4 -4.753906 4 -4.203125 C 4 -3.648438 4.078125 -3.195312 4.234375 -2.84375 C 4.472656 -2.332031 4.914062 -2.078125 5.5625 -2.078125 Z M 5.5625 -2.078125 "/></g></g><g transform="translate(205.751944, 306.241211)"><g><path d="M 10.359375 0 L 0.46875 0 L 0.46875 -2.078125 C 0.46875 -2.566406 0.609375 -2.972656 0.890625 -3.296875 C 1.179688 -3.617188 1.550781 -3.875 2 -4.0625 C 2.445312 -4.257812 2.929688 -4.414062 3.453125 -4.53125 C 3.972656 -4.65625 4.476562 -4.753906 4.96875 -4.828125 C 5.601562 -4.929688 6.113281 -5.046875 6.5 -5.171875 C 6.78125 -5.265625 6.921875 -5.394531 6.921875 -5.5625 C 6.921875 -5.613281 6.910156 -5.671875 6.890625 -5.734375 C 6.617188 -6.128906 6.175781 -6.328125 5.5625 -6.328125 C 4.957031 -6.328125 4.515625 -6.128906 4.234375 -5.734375 L 0.5 -5.734375 C 0.625 -6.285156 0.863281 -6.773438 1.21875 -7.203125 C 1.582031 -7.640625 2.113281 -7.976562 2.8125 -8.21875 C 3.507812 -8.457031 4.425781 -8.578125 5.5625 -8.578125 C 6.695312 -8.578125 7.613281 -8.457031 8.3125 -8.21875 C 9.007812 -7.976562 9.535156 -7.640625 9.890625 -7.203125 C 10.253906 -6.773438 10.5 -6.285156 10.625 -5.734375 C 10.644531 -5.597656 10.65625 -5.472656 10.65625 -5.359375 C 10.65625 -4.796875 10.441406 -4.328125 10.015625 -3.953125 C 9.585938 -3.585938 9.003906 -3.3125 8.265625 -3.125 C 7.523438 -2.945312 6.804688 -2.804688 6.109375 -2.703125 C 5.753906 -2.648438 5.429688 -2.597656 5.140625 -2.546875 C 4.859375 -2.492188 4.632812 -2.429688 4.46875 -2.359375 C 4.300781 -2.285156 4.21875 -2.191406 4.21875 -2.078125 L 10.359375 -2.078125 Z M 10.359375 0 "/></g></g><g transform="translate(216.878896, 306.241211)"><g><path d="M 5.53125 0.1875 C 4.394531 0.1875 3.476562 0.0664062 2.78125 -0.171875 C 2.09375 -0.421875 1.566406 -0.757812 1.203125 -1.1875 C 0.835938 -1.613281 0.59375 -2.109375 0.46875 -2.671875 L 4.21875 -2.671875 C 4.21875 -2.472656 4.347656 -2.320312 4.609375 -2.21875 C 4.867188 -2.125 5.175781 -2.078125 5.53125 -2.078125 C 6.414062 -2.078125 6.859375 -2.273438 6.859375 -2.671875 C 6.859375 -3.015625 6.707031 -3.242188 6.40625 -3.359375 C 6.132812 -3.460938 5.65625 -3.515625 4.96875 -3.515625 L 4.828125 -3.515625 L 4.828125 -4.875 L 4.96875 -4.875 C 5.65625 -4.875 6.140625 -4.925781 6.421875 -5.03125 C 6.710938 -5.144531 6.859375 -5.375 6.859375 -5.71875 C 6.859375 -6.125 6.414062 -6.328125 5.53125 -6.328125 C 5.175781 -6.328125 4.867188 -6.273438 4.609375 -6.171875 C 4.347656 -6.066406 4.21875 -5.914062 4.21875 -5.71875 L 0.46875 -5.71875 C 0.59375 -6.28125 0.835938 -6.773438 1.203125 -7.203125 C 1.566406 -7.628906 2.09375 -7.960938 2.78125 -8.203125 C 3.476562 -8.453125 4.394531 -8.578125 5.53125 -8.578125 C 6.675781 -8.578125 7.617188 -8.457031 8.359375 -8.21875 C 9.109375 -7.976562 9.664062 -7.640625 10.03125 -7.203125 C 10.40625 -6.773438 10.59375 -6.28125 10.59375 -5.71875 C 10.59375 -5.34375 10.476562 -5.019531 10.25 -4.75 C 10.03125 -4.476562 9.6875 -4.296875 9.21875 -4.203125 C 9.6875 -4.109375 10.03125 -3.921875 10.25 -3.640625 C 10.476562 -3.367188 10.59375 -3.046875 10.59375 -2.671875 C 10.59375 -2.109375 10.40625 -1.613281 10.03125 -1.1875 C 9.664062 -0.757812 9.109375 -0.421875 8.359375 -0.171875 C 7.617188 0.0664062 6.675781 0.1875 5.53125 0.1875 Z M 5.53125 0.1875 "/></g></g></g></svg>