<svg xmlns="http://www.w3.org/2000/svg" xmlns:xlink="http://www.w3.org/1999/xlink" width="100" zoomAndPan="magnify" viewBox="0 0 75 60" height="80" preserveAspectRatio="xMidYMid meet" version="1.0"><defs><g/><clipPath id="ab1ce37e1c"><path d="M 14.652344 1.050781 L 60.402344 1.050781 L 60.402344 48 L 14.652344 48 Z M 14.652344 1.050781 " clip-rule="nonzero"/></clipPath></defs><rect x="-7.5" width="90" fill="#ffffff" y="-6" height="72" fill-opacity="1"/><rect x="-7.5" width="90" fill="#ffffff" y="-6" height="72" fill-opacity="1"/><rect x="-7.5" width="90" fill="#000000" y="-6" height="72" fill-opacity="1"/><g clip-path="url(#ab1ce37e1c)"><path fill="#ffffff" d="M 38.4375 45.941406 C 40.640625 45.984375 42.726562 45.421875 44.8125 44.785156 C 45.019531 45.320312 45.226562 45.851562 45.449219 46.398438 C 40.167969 48.25 34.886719 48.203125 29.605469 46.371094 C 29.636719 46.28125 29.652344 46.207031 29.679688 46.132812 C 29.84375 45.671875 29.992188 45.214844 30.167969 44.726562 C 32.269531 45.378906 34.371094 45.925781 36.601562 45.953125 C 36.601562 45.878906 36.601562 45.808594 36.601562 45.746094 C 36.601562 44.742188 36.601562 43.71875 36.589844 42.714844 C 36.589844 42.328125 36.394531 42.121094 36.011719 42.0625 C 35.183594 41.945312 34.339844 41.855469 33.527344 41.679688 C 30.363281 40.9375 27.582031 39.472656 25.230469 37.238281 C 24.28125 36.351562 23.484375 35.34375 22.699219 34.324219 C 22.667969 34.277344 22.625 34.234375 22.582031 34.175781 C 22.210938 34.382812 21.839844 34.589844 21.472656 34.796875 C 20.925781 35.09375 20.390625 35.402344 19.84375 35.699219 C 19.476562 35.90625 19.429688 36.085938 19.710938 36.425781 C 20.777344 37.710938 21.839844 39 22.890625 40.289062 C 23.113281 40.554688 23.320312 40.820312 23.558594 41.085938 C 23.230469 41.472656 22.921875 41.855469 22.582031 42.253906 C 20.820312 40.730469 19.28125 39.015625 18.023438 37.074219 C 16.324219 34.457031 15.246094 31.601562 14.652344 28.523438 C 15.171875 28.417969 15.671875 28.316406 16.207031 28.210938 C 16.914062 30.3125 17.640625 32.398438 18.351562 34.515625 C 19.460938 33.894531 20.554688 33.273438 21.664062 32.652344 C 21.515625 32.296875 21.367188 31.941406 21.21875 31.601562 C 20.644531 30.238281 20.183594 28.847656 19.917969 27.398438 C 19.636719 25.84375 19.578125 24.289062 19.710938 22.722656 C 19.828125 21.257812 20.109375 19.804688 20.570312 18.402344 C 20.761719 17.824219 21.011719 17.277344 21.21875 16.699219 C 21.265625 16.566406 21.28125 16.417969 21.28125 16.285156 C 21.28125 16.105469 21.175781 15.972656 21.011719 15.886719 C 20.183594 15.425781 19.371094 14.96875 18.511719 14.480469 C 18.351562 14.804688 18.171875 15.117188 18.023438 15.441406 C 17.242188 17.070312 16.738281 18.769531 16.382812 20.53125 C 16.355469 20.710938 16.25 20.738281 16.117188 20.710938 C 15.804688 20.636719 15.496094 20.574219 15.183594 20.472656 C 14.84375 20.355469 14.710938 20.160156 14.785156 19.804688 C 14.933594 19.125 15.082031 18.429688 15.273438 17.765625 C 16.324219 14.183594 18.171875 11.0625 20.777344 8.382812 C 21.265625 7.878906 21.796875 7.390625 22.316406 6.902344 C 22.359375 6.859375 22.402344 6.828125 22.449219 6.796875 C 22.550781 6.738281 22.640625 6.738281 22.730469 6.859375 C 22.996094 7.199219 23.292969 7.523438 23.585938 7.863281 C 22.167969 9.523438 20.71875 11.179688 19.269531 12.835938 C 20.304688 13.441406 21.308594 14.035156 22.34375 14.640625 C 25.730469 9.550781 30.539062 6.886719 36.574219 6.296875 C 36.574219 5.199219 36.574219 4.105469 36.574219 2.996094 C 34.371094 2.996094 32.269531 3.542969 30.167969 4.222656 C 30.007812 3.792969 29.84375 3.378906 29.710938 2.953125 C 29.652344 2.757812 29.886719 2.492188 30.125 2.433594 C 31.011719 2.226562 31.886719 1.988281 32.773438 1.8125 C 33.761719 1.605469 34.769531 1.414062 35.761719 1.265625 C 36.839844 1.101562 37.933594 1.117188 39.015625 1.203125 C 40.6875 1.339844 42.34375 1.632812 43.953125 2.078125 C 44.488281 2.226562 45.003906 2.390625 45.539062 2.566406 C 45.332031 3.113281 45.125 3.648438 44.902344 4.195312 C 42.800781 3.542969 40.6875 2.996094 38.453125 2.996094 C 38.453125 3.054688 38.4375 3.113281 38.4375 3.160156 C 38.4375 4.136719 38.4375 5.125 38.4375 6.101562 C 38.4375 6.25 38.480469 6.296875 38.613281 6.308594 C 42.269531 6.664062 45.640625 7.789062 48.570312 10.070312 C 50.195312 11.328125 51.558594 12.835938 52.710938 14.539062 C 52.742188 14.582031 52.769531 14.613281 52.800781 14.65625 C 52.828125 14.65625 52.84375 14.640625 52.859375 14.640625 C 53.6875 14.167969 54.5 13.695312 55.328125 13.222656 C 55.460938 13.148438 55.492188 13.058594 55.492188 12.925781 C 55.476562 12.71875 55.402344 12.527344 55.269531 12.347656 C 54.160156 10.792969 52.949219 9.328125 51.707031 7.894531 C 51.617188 7.789062 51.617188 7.714844 51.691406 7.613281 C 51.914062 7.300781 52.121094 6.992188 52.355469 6.664062 C 54.515625 8.25 56.144531 10.292969 57.488281 12.539062 C 58.9375 14.96875 60.003906 17.542969 60.402344 20.398438 C 59.855469 20.488281 59.324219 20.5625 58.761719 20.648438 C 58.300781 18.519531 57.667969 16.445312 56.601562 14.523438 C 56.542969 14.554688 56.496094 14.566406 56.453125 14.597656 C 55.625 15.070312 54.8125 15.542969 53.984375 16.019531 C 53.863281 16.09375 53.835938 16.152344 53.878906 16.285156 C 54.234375 17.527344 54.605469 18.753906 54.929688 20 C 55.375 21.6875 55.535156 23.402344 55.476562 25.148438 C 55.386719 27.488281 54.828125 29.722656 53.804688 31.835938 C 53.730469 31.984375 53.6875 32.132812 53.644531 32.28125 C 53.570312 32.519531 53.65625 32.695312 53.835938 32.84375 C 53.910156 32.902344 53.984375 32.945312 54.058594 32.992188 C 54.871094 33.449219 55.699219 33.910156 56.511719 34.367188 C 56.542969 34.382812 56.570312 34.398438 56.632812 34.425781 C 57.667969 32.519531 58.332031 30.476562 58.761719 28.332031 C 59.292969 28.402344 59.824219 28.492188 60.375 28.566406 C 60.34375 28.847656 60.3125 29.113281 60.269531 29.394531 C 59.972656 31.199219 59.351562 32.886719 58.554688 34.515625 C 57.355469 36.988281 55.789062 39.207031 53.820312 41.128906 C 53.40625 41.546875 52.960938 41.914062 52.519531 42.328125 C 52.179688 41.929688 51.851562 41.546875 51.511719 41.160156 C 51.808594 40.820312 52.089844 40.480469 52.371094 40.140625 C 53.363281 38.957031 54.351562 37.757812 55.34375 36.574219 C 55.742188 36.097656 55.699219 35.921875 55.152344 35.625 C 54.457031 35.242188 53.777344 34.839844 53.097656 34.441406 C 53.050781 34.414062 53.007812 34.382812 52.960938 34.367188 C 52.667969 34.203125 52.488281 34.25 52.28125 34.515625 C 52.046875 34.828125 51.824219 35.152344 51.574219 35.464844 C 49.425781 38.171875 46.691406 40.050781 43.453125 41.203125 C 42.078125 41.691406 40.640625 41.988281 39.175781 42.0625 C 39.042969 42.078125 38.910156 42.09375 38.777344 42.121094 C 38.542969 42.167969 38.453125 42.269531 38.4375 42.507812 C 38.421875 42.640625 38.40625 42.773438 38.40625 42.890625 C 38.40625 43.882812 38.40625 44.859375 38.40625 45.851562 C 38.421875 45.851562 38.421875 45.878906 38.4375 45.941406 Z M 53.644531 24.46875 C 53.65625 24.4375 53.65625 24.421875 53.65625 24.410156 C 53.65625 24.347656 53.65625 24.304688 53.65625 24.246094 C 53.671875 22.882812 53.511719 21.539062 53.167969 20.207031 C 52.402344 17.246094 50.949219 14.6875 48.71875 12.585938 C 46.972656 10.941406 44.945312 9.757812 42.699219 8.929688 C 39.976562 7.921875 37.210938 7.703125 34.371094 8.351562 C 32.460938 8.78125 30.714844 9.566406 29.058594 10.601562 C 25.878906 12.570312 23.617188 15.292969 22.402344 18.859375 C 21.8125 20.605469 21.515625 22.425781 21.425781 24.261719 C 21.425781 24.335938 21.425781 24.394531 21.425781 24.46875 C 32.179688 24.46875 42.90625 24.46875 53.644531 24.46875 Z M 34.191406 26.390625 C 34.175781 26.644531 34.164062 26.878906 34.164062 27.117188 C 34.164062 30.832031 34.164062 34.558594 34.164062 38.273438 C 34.164062 38.675781 34.148438 39.074219 34.164062 39.472656 C 34.175781 39.84375 34.3125 39.960938 34.679688 40.035156 C 36.21875 40.300781 37.773438 40.390625 39.324219 40.214844 C 39.695312 40.167969 40.050781 40.109375 40.40625 40.035156 C 40.6875 39.976562 40.832031 39.785156 40.878906 39.503906 C 40.894531 39.414062 40.894531 39.308594 40.894531 39.222656 C 40.894531 38.347656 40.894531 37.476562 40.894531 36.601562 C 40.894531 33.480469 40.894531 30.359375 40.894531 27.234375 C 40.894531 26.953125 40.863281 26.671875 40.847656 26.390625 C 38.601562 26.390625 36.410156 26.390625 34.191406 26.390625 Z M 42.625 39.445312 C 42.890625 39.355469 43.140625 39.308594 43.347656 39.191406 C 44.53125 38.570312 45.714844 37.933594 46.882812 37.28125 C 47.164062 37.136719 47.328125 36.882812 47.34375 36.558594 C 47.355469 36.367188 47.355469 36.1875 47.355469 35.996094 C 47.355469 34.828125 47.355469 33.671875 47.355469 32.503906 C 47.355469 30.683594 47.355469 28.863281 47.355469 27.042969 C 47.355469 26.835938 47.34375 26.613281 47.328125 26.390625 C 45.757812 26.390625 44.191406 26.390625 42.625 26.390625 C 42.625 30.726562 42.625 35.0625 42.625 39.445312 Z M 27.640625 26.40625 C 27.640625 26.496094 27.640625 26.554688 27.640625 26.613281 C 27.640625 29.410156 27.640625 32.222656 27.640625 35.019531 C 27.640625 35.34375 27.65625 35.65625 27.667969 35.980469 C 27.699219 36.632812 27.949219 37.148438 28.511719 37.492188 C 28.601562 37.550781 28.691406 37.609375 28.777344 37.667969 C 29.902344 38.347656 31.117188 38.882812 32.3125 39.429688 C 32.328125 39.445312 32.359375 39.429688 32.371094 39.429688 C 32.371094 35.078125 32.371094 30.742188 32.371094 26.40625 C 30.804688 26.40625 29.238281 26.40625 27.640625 26.40625 Z M 49.101562 35.152344 C 49.207031 35.078125 49.292969 35.019531 49.367188 34.960938 C 49.648438 34.679688 49.945312 34.414062 50.195312 34.117188 C 51.558594 32.398438 52.503906 30.460938 53.140625 28.359375 C 53.316406 27.78125 53.449219 27.191406 53.390625 26.582031 C 53.375 26.4375 53.332031 26.390625 53.183594 26.390625 C 51.882812 26.390625 50.582031 26.390625 49.28125 26.390625 C 49.21875 26.390625 49.160156 26.390625 49.101562 26.40625 C 49.101562 29.308594 49.101562 32.207031 49.101562 35.152344 Z M 25.863281 34.929688 C 25.863281 32.058594 25.863281 29.234375 25.863281 26.390625 C 24.460938 26.390625 23.054688 26.390625 21.648438 26.390625 C 22.152344 29.675781 23.484375 32.53125 25.863281 34.929688 Z M 25.96875 19.613281 C 26.117188 20.355469 26.558594 20.796875 27.300781 20.945312 C 28.335938 21.152344 29.355469 21.152344 30.375 20.886719 C 32.09375 20.441406 33.378906 19.390625 34.3125 17.925781 C 34.945312 16.921875 35.09375 15.8125 34.796875 14.65625 C 34.382812 13.058594 33.023438 11.992188 31.398438 12.039062 C 30.140625 12.066406 29 12.480469 28.023438 13.296875 C 26.515625 14.554688 25.851562 16.226562 25.789062 18.355469 C 25.835938 18.652344 25.878906 19.140625 25.96875 19.613281 Z M 47.105469 21.09375 C 48.230469 21.035156 48.96875 20.414062 49.25 19.316406 C 49.414062 18.636719 49.382812 17.957031 49.28125 17.261719 C 49.027344 15.558594 48.273438 14.167969 46.867188 13.148438 C 45.921875 12.453125 44.917969 11.976562 43.71875 12.023438 C 42.917969 12.050781 42.179688 12.246094 41.574219 12.777344 C 40.332031 13.871094 39.992188 15.261719 40.359375 16.847656 C 40.597656 17.824219 41.21875 18.578125 41.914062 19.257812 C 43.230469 20.546875 44.84375 21.0625 46.648438 21.09375 C 46.792969 21.09375 46.957031 21.09375 47.105469 21.09375 Z M 37.503906 22.972656 C 38.496094 22.957031 39.308594 22.144531 39.296875 21.183594 C 39.296875 20.265625 38.378906 19.347656 37.476562 19.363281 C 36.53125 19.378906 35.671875 20.25 35.671875 21.183594 C 35.699219 22.21875 36.46875 22.988281 37.503906 22.972656 Z M 37.503906 22.972656 " fill-opacity="1" fill-rule="nonzero"/></g><g fill="#ffffff" fill-opacity="1"><g transform="translate(13.059986, 56.297748)"><g><path d="M 2.4375 0.09375 C 2.03125 0.09375 1.671875 0.0234375 1.359375 -0.109375 C 1.046875 -0.253906 0.796875 -0.457031 0.609375 -0.71875 C 0.429688 -0.976562 0.34375 -1.296875 0.34375 -1.671875 L 1.421875 -1.671875 C 1.429688 -1.410156 1.523438 -1.191406 1.703125 -1.015625 C 1.878906 -0.835938 2.125 -0.75 2.4375 -0.75 C 2.707031 -0.75 2.921875 -0.8125 3.078125 -0.9375 C 3.234375 -1.070312 3.3125 -1.25 3.3125 -1.46875 C 3.3125 -1.695312 3.238281 -1.875 3.09375 -2 C 2.957031 -2.125 2.769531 -2.226562 2.53125 -2.3125 C 2.300781 -2.394531 2.054688 -2.476562 1.796875 -2.5625 C 1.367188 -2.71875 1.039062 -2.910156 0.8125 -3.140625 C 0.59375 -3.367188 0.484375 -3.679688 0.484375 -4.078125 C 0.472656 -4.398438 0.546875 -4.675781 0.703125 -4.90625 C 0.867188 -5.144531 1.09375 -5.328125 1.375 -5.453125 C 1.65625 -5.585938 1.976562 -5.65625 2.34375 -5.65625 C 2.71875 -5.65625 3.046875 -5.585938 3.328125 -5.453125 C 3.609375 -5.328125 3.828125 -5.144531 3.984375 -4.90625 C 4.148438 -4.664062 4.238281 -4.382812 4.25 -4.0625 L 3.171875 -4.0625 C 3.160156 -4.25 3.082031 -4.414062 2.9375 -4.5625 C 2.789062 -4.71875 2.585938 -4.796875 2.328125 -4.796875 C 2.109375 -4.804688 1.921875 -4.753906 1.765625 -4.640625 C 1.617188 -4.523438 1.546875 -4.359375 1.546875 -4.140625 C 1.546875 -3.953125 1.601562 -3.804688 1.71875 -3.703125 C 1.832031 -3.597656 1.988281 -3.503906 2.1875 -3.421875 C 2.394531 -3.347656 2.628906 -3.269531 2.890625 -3.1875 C 3.160156 -3.09375 3.410156 -2.984375 3.640625 -2.859375 C 3.867188 -2.734375 4.050781 -2.5625 4.1875 -2.34375 C 4.320312 -2.132812 4.390625 -1.867188 4.390625 -1.546875 C 4.390625 -1.253906 4.316406 -0.984375 4.171875 -0.734375 C 4.023438 -0.484375 3.804688 -0.28125 3.515625 -0.125 C 3.222656 0.0195312 2.863281 0.09375 2.4375 0.09375 Z M 2.4375 0.09375 "/></g></g></g><g fill="#ffffff" fill-opacity="1"><g transform="translate(19.038576, 56.297748)"><g><path d="M 0.546875 0 L 0.546875 -5.5625 L 1.5625 -5.5625 L 1.5625 -3.25 L 4.0625 -3.25 L 4.0625 -5.5625 L 5.078125 -5.5625 L 5.078125 0 L 4.0625 0 L 4.0625 -2.421875 L 1.5625 -2.421875 L 1.5625 0 Z M 0.546875 0 "/></g></g></g><g fill="#ffffff" fill-opacity="1"><g transform="translate(25.883627, 56.297748)"><g><path d="M 0.546875 0 L 0.546875 -5.5625 L 1.5625 -5.5625 L 1.5625 0 Z M 0.546875 0 "/></g></g></g><g fill="#ffffff" fill-opacity="1"><g transform="translate(29.215123, 56.297748)"><g><path d="M 0.546875 0 L 0.546875 -5.5625 L 1.5625 -5.5625 L 4.171875 -1.640625 L 4.171875 -5.5625 L 5.1875 -5.5625 L 5.1875 0 L 4.171875 0 L 1.5625 -3.90625 L 1.5625 0 Z M 0.546875 0 "/></g></g></g><g fill="#ffffff" fill-opacity="1"><g transform="translate(36.176878, 56.297748)"><g><path d="M 2.359375 0.09375 C 1.953125 0.09375 1.597656 0.0195312 1.296875 -0.125 C 0.992188 -0.269531 0.757812 -0.472656 0.59375 -0.734375 C 0.425781 -1.003906 0.34375 -1.316406 0.34375 -1.671875 L 1.046875 -1.671875 C 1.046875 -1.453125 1.097656 -1.25 1.203125 -1.0625 C 1.304688 -0.882812 1.453125 -0.738281 1.640625 -0.625 C 1.835938 -0.519531 2.078125 -0.46875 2.359375 -0.46875 C 2.734375 -0.46875 3.023438 -0.554688 3.234375 -0.734375 C 3.441406 -0.921875 3.546875 -1.148438 3.546875 -1.421875 C 3.546875 -1.640625 3.5 -1.816406 3.40625 -1.953125 C 3.3125 -2.085938 3.179688 -2.195312 3.015625 -2.28125 C 2.859375 -2.363281 2.671875 -2.4375 2.453125 -2.5 C 2.242188 -2.5625 2.03125 -2.632812 1.8125 -2.71875 C 1.375 -2.863281 1.050781 -3.046875 0.84375 -3.265625 C 0.644531 -3.492188 0.546875 -3.785156 0.546875 -4.140625 C 0.535156 -4.429688 0.601562 -4.691406 0.75 -4.921875 C 0.894531 -5.148438 1.097656 -5.328125 1.359375 -5.453125 C 1.617188 -5.585938 1.929688 -5.65625 2.296875 -5.65625 C 2.648438 -5.65625 2.957031 -5.585938 3.21875 -5.453125 C 3.476562 -5.328125 3.679688 -5.144531 3.828125 -4.90625 C 3.972656 -4.675781 4.050781 -4.414062 4.0625 -4.125 L 3.359375 -4.125 C 3.359375 -4.269531 3.316406 -4.414062 3.234375 -4.5625 C 3.160156 -4.71875 3.039062 -4.84375 2.875 -4.9375 C 2.707031 -5.039062 2.503906 -5.09375 2.265625 -5.09375 C 1.960938 -5.09375 1.710938 -5.015625 1.515625 -4.859375 C 1.328125 -4.703125 1.234375 -4.484375 1.234375 -4.203125 C 1.234375 -3.960938 1.300781 -3.773438 1.4375 -3.640625 C 1.570312 -3.515625 1.757812 -3.410156 2 -3.328125 C 2.25 -3.253906 2.53125 -3.160156 2.84375 -3.046875 C 3.113281 -2.953125 3.351562 -2.84375 3.5625 -2.71875 C 3.769531 -2.59375 3.929688 -2.425781 4.046875 -2.21875 C 4.171875 -2.019531 4.234375 -1.765625 4.234375 -1.453125 C 4.234375 -1.191406 4.164062 -0.941406 4.03125 -0.703125 C 3.894531 -0.460938 3.6875 -0.269531 3.40625 -0.125 C 3.125 0.0195312 2.773438 0.09375 2.359375 0.09375 Z M 2.359375 0.09375 "/></g></g></g><g fill="#ffffff" fill-opacity="1"><g transform="translate(42.004429, 56.297748)"><g><path d="M 0.59375 0 L 0.59375 -5.5625 L 4.03125 -5.5625 L 4.03125 -5.015625 L 1.25 -5.015625 L 1.25 -3.078125 L 3.796875 -3.078125 L 3.796875 -2.53125 L 1.25 -2.53125 L 1.25 -0.546875 L 4.03125 -0.546875 L 4.03125 0 Z M 0.59375 0 "/></g></g></g><g fill="#ffffff" fill-opacity="1"><g transform="translate(47.720693, 56.297748)"><g><path d="M 0.59375 0 L 0.59375 -5.5625 L 1.25 -5.5625 L 1.25 -3.046875 L 3.578125 -5.5625 L 4.421875 -5.5625 L 2.359375 -3.34375 L 4.453125 0 L 3.640625 0 L 1.875 -2.828125 L 1.25 -2.171875 L 1.25 0 Z M 0.59375 0 "/></g></g></g><g fill="#ffffff" fill-opacity="1"><g transform="translate(53.580043, 56.297748)"><g><path d="M 0.234375 0 L 2.296875 -5.5625 L 3 -5.5625 L 5.046875 0 L 4.328125 0 L 3.828125 -1.4375 L 1.453125 -1.4375 L 0.9375 0 Z M 1.65625 -1.96875 L 3.625 -1.96875 L 2.640625 -4.71875 Z M 1.65625 -1.96875 "/></g></g></g><g fill="#ffffff" fill-opacity="1"><g transform="translate(60.091228, 56.297748)"><g><path d="M 0.59375 0 L 0.59375 -5.5625 L 1.25 -5.5625 L 1.25 0 Z M 0.59375 0 "/></g></g></g></svg>