<svg xmlns="http://www.w3.org/2000/svg" xmlns:xlink="http://www.w3.org/1999/xlink" width="500" zoomAndPan="magnify" viewBox="0 0 375 374.999991" height="500" preserveAspectRatio="xMidYMid meet" version="1.0"><defs><g/><clipPath id="cff00ec04c"><path d="M 53.523438 159.355469 L 108.273438 159.355469 L 108.273438 215 L 53.523438 215 Z M 53.523438 159.355469 " clip-rule="nonzero"/></clipPath></defs><g clip-path="url(#cff00ec04c)"><path fill="#ffffff" d="M 81.988281 212.796875 C 84.625 212.851562 87.121094 212.179688 89.617188 211.421875 C 89.863281 212.058594 90.113281 212.691406 90.378906 213.34375 C 84.058594 215.546875 77.738281 215.492188 71.417969 213.308594 C 71.453125 213.203125 71.472656 213.113281 71.507812 213.027344 C 71.703125 212.480469 71.878906 211.933594 72.089844 211.351562 C 74.605469 212.128906 77.117188 212.78125 79.792969 212.816406 C 79.792969 212.726562 79.792969 212.640625 79.792969 212.570312 C 79.792969 211.371094 79.792969 210.15625 79.773438 208.957031 C 79.773438 208.5 79.542969 208.25 79.082031 208.179688 C 78.09375 208.039062 77.082031 207.933594 76.109375 207.722656 C 72.320312 206.84375 68.992188 205.097656 66.179688 202.4375 C 65.046875 201.378906 64.089844 200.183594 63.152344 198.96875 C 63.117188 198.914062 63.0625 198.863281 63.011719 198.789062 C 62.566406 199.039062 62.125 199.285156 61.683594 199.53125 C 61.027344 199.882812 60.390625 200.253906 59.734375 200.605469 C 59.292969 200.851562 59.242188 201.0625 59.578125 201.46875 C 60.851562 203 62.125 204.535156 63.382812 206.066406 C 63.648438 206.382812 63.894531 206.703125 64.179688 207.019531 C 63.789062 207.476562 63.417969 207.933594 63.011719 208.410156 C 60.90625 206.597656 59.0625 204.550781 57.558594 202.242188 C 55.523438 199.125 54.230469 195.726562 53.523438 192.0625 C 54.140625 191.9375 54.746094 191.8125 55.382812 191.691406 C 56.230469 194.191406 57.097656 196.675781 57.949219 199.195312 C 59.277344 198.457031 60.585938 197.714844 61.914062 196.976562 C 61.738281 196.554688 61.558594 196.128906 61.382812 195.726562 C 60.691406 194.105469 60.144531 192.449219 59.824219 190.722656 C 59.488281 188.871094 59.417969 187.023438 59.578125 185.15625 C 59.71875 183.410156 60.054688 181.683594 60.601562 180.011719 C 60.832031 179.324219 61.132812 178.671875 61.382812 177.984375 C 61.433594 177.824219 61.453125 177.648438 61.453125 177.492188 C 61.453125 177.277344 61.328125 177.121094 61.132812 177.015625 C 60.144531 176.46875 59.167969 175.921875 58.144531 175.339844 C 57.949219 175.730469 57.734375 176.097656 57.558594 176.484375 C 56.621094 178.425781 56.019531 180.449219 55.59375 182.546875 C 55.558594 182.757812 55.433594 182.792969 55.277344 182.757812 C 54.902344 182.671875 54.53125 182.601562 54.160156 182.476562 C 53.753906 182.335938 53.59375 182.105469 53.683594 181.683594 C 53.859375 180.875 54.035156 180.046875 54.265625 179.253906 C 55.523438 174.988281 57.734375 171.269531 60.851562 168.082031 C 61.433594 167.484375 62.074219 166.902344 62.691406 166.320312 C 62.746094 166.269531 62.796875 166.230469 62.851562 166.195312 C 62.976562 166.125 63.082031 166.125 63.1875 166.269531 C 63.507812 166.671875 63.859375 167.058594 64.214844 167.464844 C 62.515625 169.4375 60.78125 171.414062 59.046875 173.386719 C 60.285156 174.109375 61.488281 174.8125 62.726562 175.535156 C 66.78125 169.472656 72.535156 166.304688 79.757812 165.597656 C 79.757812 164.292969 79.757812 162.992188 79.757812 161.667969 C 77.117188 161.667969 74.605469 162.320312 72.089844 163.132812 C 71.898438 162.621094 71.703125 162.128906 71.542969 161.617188 C 71.472656 161.386719 71.753906 161.070312 72.039062 161 C 73.101562 160.753906 74.144531 160.472656 75.207031 160.261719 C 76.394531 160.011719 77.597656 159.785156 78.78125 159.609375 C 80.074219 159.414062 81.386719 159.433594 82.675781 159.539062 C 84.675781 159.695312 86.660156 160.046875 88.589844 160.578125 C 89.226562 160.753906 89.847656 160.945312 90.484375 161.160156 C 90.234375 161.808594 89.988281 162.445312 89.722656 163.097656 C 87.207031 162.320312 84.675781 161.667969 82.003906 161.667969 C 82.003906 161.738281 81.988281 161.808594 81.988281 161.863281 C 81.988281 163.027344 81.988281 164.207031 81.988281 165.367188 C 81.988281 165.546875 82.039062 165.597656 82.199219 165.617188 C 86.570312 166.039062 90.605469 167.378906 94.113281 170.089844 C 96.058594 171.589844 97.6875 173.386719 99.066406 175.410156 C 99.105469 175.464844 99.140625 175.5 99.175781 175.550781 C 99.210938 175.550781 99.226562 175.535156 99.246094 175.535156 C 100.238281 174.972656 101.210938 174.40625 102.203125 173.84375 C 102.359375 173.753906 102.394531 173.648438 102.394531 173.492188 C 102.378906 173.246094 102.289062 173.015625 102.128906 172.804688 C 100.804688 170.953125 99.351562 169.210938 97.863281 167.5 C 97.757812 167.378906 97.757812 167.289062 97.847656 167.167969 C 98.113281 166.796875 98.359375 166.425781 98.644531 166.039062 C 101.226562 167.921875 103.175781 170.355469 104.785156 173.03125 C 106.519531 175.921875 107.796875 178.988281 108.273438 182.386719 C 107.617188 182.492188 106.980469 182.582031 106.308594 182.6875 C 105.757812 180.152344 105 177.683594 103.722656 175.394531 C 103.652344 175.429688 103.601562 175.445312 103.546875 175.480469 C 102.554688 176.046875 101.582031 176.609375 100.589844 177.171875 C 100.449219 177.261719 100.414062 177.332031 100.464844 177.492188 C 100.890625 178.96875 101.335938 180.433594 101.722656 181.914062 C 102.253906 183.921875 102.449219 185.964844 102.378906 188.042969 C 102.273438 190.828125 101.601562 193.488281 100.378906 196.007812 C 100.289062 196.183594 100.238281 196.359375 100.183594 196.535156 C 100.09375 196.816406 100.203125 197.027344 100.414062 197.207031 C 100.503906 197.277344 100.589844 197.328125 100.679688 197.382812 C 101.652344 197.925781 102.644531 198.472656 103.617188 199.019531 C 103.652344 199.039062 103.6875 199.054688 103.757812 199.089844 C 105 196.816406 105.792969 194.386719 106.308594 191.832031 C 106.945312 191.917969 107.582031 192.027344 108.238281 192.113281 C 108.203125 192.449219 108.167969 192.765625 108.113281 193.101562 C 107.757812 195.25 107.015625 197.257812 106.058594 199.195312 C 104.625 202.136719 102.75 204.78125 100.394531 207.070312 C 99.898438 207.566406 99.371094 208.003906 98.839844 208.5 C 98.429688 208.023438 98.042969 207.566406 97.632812 207.105469 C 97.988281 206.703125 98.324219 206.296875 98.660156 205.890625 C 99.847656 204.480469 101.03125 203.054688 102.21875 201.644531 C 102.695312 201.082031 102.644531 200.871094 101.988281 200.515625 C 101.15625 200.058594 100.34375 199.582031 99.527344 199.109375 C 99.476562 199.074219 99.421875 199.039062 99.371094 199.019531 C 99.015625 198.824219 98.804688 198.878906 98.554688 199.195312 C 98.273438 199.566406 98.007812 199.953125 97.707031 200.324219 C 95.136719 203.546875 91.863281 205.785156 87.988281 207.160156 C 86.339844 207.742188 84.625 208.09375 82.871094 208.179688 C 82.710938 208.199219 82.554688 208.214844 82.394531 208.25 C 82.109375 208.304688 82.003906 208.429688 81.988281 208.710938 C 81.96875 208.867188 81.953125 209.027344 81.953125 209.167969 C 81.953125 210.347656 81.953125 211.511719 81.953125 212.691406 C 81.96875 212.691406 81.96875 212.726562 81.988281 212.796875 Z M 100.183594 187.234375 C 100.203125 187.199219 100.203125 187.179688 100.203125 187.164062 C 100.203125 187.09375 100.203125 187.039062 100.203125 186.96875 C 100.21875 185.347656 100.023438 183.746094 99.617188 182.160156 C 98.695312 178.636719 96.960938 175.585938 94.289062 173.085938 C 92.199219 171.128906 89.773438 169.722656 87.085938 168.734375 C 83.828125 167.535156 80.515625 167.273438 77.117188 168.046875 C 74.835938 168.558594 72.746094 169.492188 70.765625 170.726562 C 66.957031 173.066406 64.25 176.308594 62.796875 180.554688 C 62.089844 182.636719 61.738281 184.800781 61.628906 186.988281 C 61.628906 187.074219 61.628906 187.144531 61.628906 187.234375 C 74.5 187.234375 87.332031 187.234375 100.183594 187.234375 Z M 76.90625 189.523438 C 76.886719 189.824219 76.871094 190.105469 76.871094 190.386719 C 76.871094 194.808594 76.871094 199.25 76.871094 203.671875 C 76.871094 204.148438 76.851562 204.621094 76.871094 205.097656 C 76.886719 205.539062 77.046875 205.679688 77.492188 205.769531 C 79.332031 206.085938 81.191406 206.191406 83.046875 205.980469 C 83.492188 205.925781 83.917969 205.855469 84.339844 205.769531 C 84.675781 205.699219 84.855469 205.46875 84.90625 205.132812 C 84.925781 205.027344 84.925781 204.90625 84.925781 204.796875 C 84.925781 203.757812 84.925781 202.71875 84.925781 201.679688 C 84.925781 197.960938 84.925781 194.246094 84.925781 190.527344 C 84.925781 190.191406 84.890625 189.859375 84.871094 189.523438 C 82.179688 189.523438 79.5625 189.523438 76.90625 189.523438 Z M 86.996094 205.0625 C 87.316406 204.957031 87.617188 204.90625 87.863281 204.761719 C 89.28125 204.023438 90.695312 203.265625 92.09375 202.492188 C 92.429688 202.316406 92.625 202.015625 92.644531 201.628906 C 92.660156 201.398438 92.660156 201.1875 92.660156 200.957031 C 92.660156 199.566406 92.660156 198.191406 92.660156 196.800781 C 92.660156 194.632812 92.660156 192.464844 92.660156 190.300781 C 92.660156 190.050781 92.644531 189.789062 92.625 189.523438 C 90.75 189.523438 88.871094 189.523438 86.996094 189.523438 C 86.996094 194.6875 86.996094 199.847656 86.996094 205.0625 Z M 69.066406 189.542969 C 69.066406 189.648438 69.066406 189.71875 69.066406 189.789062 C 69.066406 193.117188 69.066406 196.464844 69.066406 199.796875 C 69.066406 200.183594 69.082031 200.554688 69.101562 200.941406 C 69.136719 201.714844 69.4375 202.332031 70.109375 202.738281 C 70.214844 202.808594 70.320312 202.878906 70.425781 202.949219 C 71.773438 203.757812 73.222656 204.394531 74.660156 205.046875 C 74.675781 205.0625 74.710938 205.046875 74.730469 205.046875 C 74.730469 199.867188 74.730469 194.703125 74.730469 189.542969 C 72.851562 189.542969 70.976562 189.542969 69.066406 189.542969 Z M 94.75 199.953125 C 94.875 199.867188 94.980469 199.796875 95.066406 199.726562 C 95.402344 199.390625 95.757812 199.074219 96.058594 198.71875 C 97.6875 196.675781 98.820312 194.367188 99.582031 191.867188 C 99.792969 191.179688 99.953125 190.476562 99.882812 189.753906 C 99.863281 189.578125 99.8125 189.523438 99.636719 189.523438 C 98.078125 189.523438 96.519531 189.523438 94.960938 189.523438 C 94.890625 189.523438 94.820312 189.523438 94.75 189.542969 C 94.75 192.996094 94.75 196.449219 94.75 199.953125 Z M 66.941406 199.691406 C 66.941406 196.273438 66.941406 192.90625 66.941406 189.523438 C 65.257812 189.523438 63.578125 189.523438 61.894531 189.523438 C 62.496094 193.433594 64.089844 196.835938 66.941406 199.691406 Z M 67.066406 181.453125 C 67.242188 182.335938 67.773438 182.863281 68.65625 183.039062 C 69.898438 183.285156 71.117188 183.285156 72.339844 182.96875 C 74.394531 182.441406 75.933594 181.191406 77.046875 179.445312 C 77.808594 178.246094 77.984375 176.925781 77.632812 175.550781 C 77.136719 173.648438 75.507812 172.382812 73.5625 172.433594 C 72.054688 172.46875 70.691406 172.960938 69.523438 173.929688 C 67.71875 175.429688 66.921875 177.421875 66.851562 179.957031 C 66.90625 180.308594 66.957031 180.890625 67.066406 181.453125 Z M 92.359375 183.214844 C 93.703125 183.144531 94.589844 182.40625 94.925781 181.101562 C 95.121094 180.292969 95.085938 179.480469 94.960938 178.652344 C 94.660156 176.628906 93.757812 174.972656 92.078125 173.753906 C 90.945312 172.925781 89.738281 172.363281 88.304688 172.417969 C 87.351562 172.453125 86.464844 172.679688 85.738281 173.316406 C 84.253906 174.617188 83.84375 176.273438 84.289062 178.160156 C 84.570312 179.324219 85.316406 180.222656 86.144531 181.03125 C 87.722656 182.566406 89.652344 183.179688 91.8125 183.214844 C 91.988281 183.214844 92.183594 183.214844 92.359375 183.214844 Z M 80.871094 185.453125 C 82.058594 185.4375 83.03125 184.46875 83.011719 183.320312 C 83.011719 182.230469 81.914062 181.136719 80.835938 181.15625 C 79.703125 181.171875 78.675781 182.210938 78.675781 183.320312 C 78.710938 184.554688 79.632812 185.472656 80.871094 185.453125 Z M 80.871094 185.453125 " fill-opacity="1" fill-rule="nonzero"/></g><g fill="#ffffff" fill-opacity="1"><g transform="translate(115.884691, 196.856837)"><g><path d="M 9.734375 0.375 C 8.097656 0.375 6.65625 0.0976562 5.40625 -0.453125 C 4.164062 -1.015625 3.1875 -1.816406 2.46875 -2.859375 C 1.75 -3.910156 1.378906 -5.1875 1.359375 -6.6875 L 5.640625 -6.6875 C 5.679688 -5.65625 6.054688 -4.785156 6.765625 -4.078125 C 7.472656 -3.367188 8.453125 -3.015625 9.703125 -3.015625 C 10.773438 -3.015625 11.628906 -3.269531 12.265625 -3.78125 C 12.898438 -4.300781 13.21875 -4.992188 13.21875 -5.859375 C 13.21875 -6.765625 12.9375 -7.472656 12.375 -7.984375 C 11.8125 -8.492188 11.066406 -8.90625 10.140625 -9.21875 C 9.210938 -9.539062 8.21875 -9.878906 7.15625 -10.234375 C 5.445312 -10.828125 4.144531 -11.585938 3.25 -12.515625 C 2.351562 -13.441406 1.90625 -14.675781 1.90625 -16.21875 C 1.882812 -17.53125 2.191406 -18.65625 2.828125 -19.59375 C 3.472656 -20.539062 4.351562 -21.269531 5.46875 -21.78125 C 6.59375 -22.300781 7.882812 -22.5625 9.34375 -22.5625 C 10.820312 -22.5625 12.125 -22.296875 13.25 -21.765625 C 14.382812 -21.242188 15.273438 -20.503906 15.921875 -19.546875 C 16.566406 -18.597656 16.910156 -17.46875 16.953125 -16.15625 L 12.609375 -16.15625 C 12.585938 -16.9375 12.285156 -17.628906 11.703125 -18.234375 C 11.128906 -18.835938 10.320312 -19.140625 9.28125 -19.140625 C 8.394531 -19.160156 7.648438 -18.941406 7.046875 -18.484375 C 6.441406 -18.035156 6.140625 -17.378906 6.140625 -16.515625 C 6.140625 -15.773438 6.375 -15.1875 6.84375 -14.75 C 7.3125 -14.3125 7.945312 -13.945312 8.75 -13.65625 C 9.550781 -13.363281 10.46875 -13.046875 11.5 -12.703125 C 12.601562 -12.328125 13.609375 -11.882812 14.515625 -11.375 C 15.421875 -10.863281 16.144531 -10.191406 16.6875 -9.359375 C 17.238281 -8.523438 17.515625 -7.453125 17.515625 -6.140625 C 17.515625 -4.984375 17.21875 -3.90625 16.625 -2.90625 C 16.039062 -1.914062 15.164062 -1.117188 14 -0.515625 C 12.84375 0.078125 11.421875 0.375 9.734375 0.375 Z M 9.734375 0.375 "/></g></g></g><g fill="#ffffff" fill-opacity="1"><g transform="translate(139.706529, 196.856837)"><g><path d="M 2.15625 0 L 2.15625 -22.1875 L 6.203125 -22.1875 L 6.203125 -12.953125 L 16.15625 -12.953125 L 16.15625 -22.1875 L 20.21875 -22.1875 L 20.21875 0 L 16.15625 0 L 16.15625 -9.671875 L 6.203125 -9.671875 L 6.203125 0 Z M 2.15625 0 "/></g></g></g><g fill="#ffffff" fill-opacity="1"><g transform="translate(166.980806, 196.856837)"><g><path d="M 2.15625 0 L 2.15625 -22.1875 L 6.203125 -22.1875 L 6.203125 0 Z M 2.15625 0 "/></g></g></g><g fill="#ffffff" fill-opacity="1"><g transform="translate(180.255235, 196.856837)"><g><path d="M 2.15625 0 L 2.15625 -22.1875 L 6.203125 -22.1875 L 16.640625 -6.5625 L 16.640625 -22.1875 L 20.6875 -22.1875 L 20.6875 0 L 16.640625 0 L 6.203125 -15.59375 L 6.203125 0 Z M 2.15625 0 "/></g></g></g><g fill="#ffffff" fill-opacity="1"><g transform="translate(207.99452, 196.856837)"><g><path d="M 9.40625 0.375 C 7.78125 0.375 6.363281 0.0820312 5.15625 -0.5 C 3.957031 -1.09375 3.03125 -1.914062 2.375 -2.96875 C 1.71875 -4.03125 1.390625 -5.257812 1.390625 -6.65625 L 4.1875 -6.65625 C 4.1875 -5.789062 4.382812 -4.992188 4.78125 -4.265625 C 5.1875 -3.535156 5.773438 -2.953125 6.546875 -2.515625 C 7.316406 -2.085938 8.269531 -1.875 9.40625 -1.875 C 10.90625 -1.875 12.066406 -2.234375 12.890625 -2.953125 C 13.710938 -3.671875 14.125 -4.566406 14.125 -5.640625 C 14.125 -6.523438 13.929688 -7.238281 13.546875 -7.78125 C 13.171875 -8.320312 12.660156 -8.757812 12.015625 -9.09375 C 11.378906 -9.425781 10.644531 -9.71875 9.8125 -9.96875 C 8.976562 -10.226562 8.101562 -10.519531 7.1875 -10.84375 C 5.476562 -11.425781 4.210938 -12.15625 3.390625 -13.03125 C 2.566406 -13.914062 2.15625 -15.066406 2.15625 -16.484375 C 2.132812 -17.660156 2.40625 -18.707031 2.96875 -19.625 C 3.539062 -20.550781 4.347656 -21.269531 5.390625 -21.78125 C 6.441406 -22.300781 7.6875 -22.5625 9.125 -22.5625 C 10.539062 -22.5625 11.769531 -22.296875 12.8125 -21.765625 C 13.863281 -21.242188 14.675781 -20.515625 15.25 -19.578125 C 15.832031 -18.648438 16.132812 -17.597656 16.15625 -16.421875 L 13.375 -16.421875 C 13.375 -17.023438 13.210938 -17.628906 12.890625 -18.234375 C 12.578125 -18.835938 12.097656 -19.328125 11.453125 -19.703125 C 10.804688 -20.085938 10 -20.28125 9.03125 -20.28125 C 7.820312 -20.300781 6.832031 -19.992188 6.0625 -19.359375 C 5.289062 -18.722656 4.90625 -17.847656 4.90625 -16.734375 C 4.90625 -15.785156 5.175781 -15.054688 5.71875 -14.546875 C 6.257812 -14.035156 7.015625 -13.613281 7.984375 -13.28125 C 8.953125 -12.957031 10.070312 -12.585938 11.34375 -12.171875 C 12.394531 -11.785156 13.34375 -11.335938 14.1875 -10.828125 C 15.039062 -10.328125 15.703125 -9.675781 16.171875 -8.875 C 16.648438 -8.070312 16.890625 -7.046875 16.890625 -5.796875 C 16.890625 -4.742188 16.613281 -3.742188 16.0625 -2.796875 C 15.507812 -1.859375 14.679688 -1.09375 13.578125 -0.5 C 12.472656 0.0820312 11.082031 0.375 9.40625 0.375 Z M 9.40625 0.375 "/></g></g></g><g fill="#ffffff" fill-opacity="1"><g transform="translate(231.214543, 196.856837)"><g><path d="M 2.34375 0 L 2.34375 -22.1875 L 16.0625 -22.1875 L 16.0625 -20 L 5 -20 L 5 -12.265625 L 15.109375 -12.265625 L 15.109375 -10.109375 L 5 -10.109375 L 5 -2.1875 L 16.0625 -2.1875 L 16.0625 0 Z M 2.34375 0 "/></g></g></g><g fill="#ffffff" fill-opacity="1"><g transform="translate(253.991138, 196.856837)"><g><path d="M 2.34375 0 L 2.34375 -22.1875 L 5 -22.1875 L 5 -12.140625 L 14.265625 -22.1875 L 17.625 -22.1875 L 9.375 -13.34375 L 17.75 0 L 14.515625 0 L 7.484375 -11.28125 L 5 -8.65625 L 5 0 Z M 2.34375 0 "/></g></g></g><g fill="#ffffff" fill-opacity="1"><g transform="translate(277.337862, 196.856837)"><g><path d="M 0.953125 0 L 9.125 -22.1875 L 11.953125 -22.1875 L 20.09375 0 L 17.265625 0 L 15.234375 -5.703125 L 5.796875 -5.703125 L 3.734375 0 Z M 6.59375 -7.859375 L 14.453125 -7.859375 L 10.515625 -18.828125 Z M 6.59375 -7.859375 "/></g></g></g><g fill="#ffffff" fill-opacity="1"><g transform="translate(303.28184, 196.856837)"><g><path d="M 2.34375 0 L 2.34375 -22.1875 L 5 -22.1875 L 5 0 Z M 2.34375 0 "/></g></g></g></svg>