<svg xmlns="http://www.w3.org/2000/svg" xmlns:xlink="http://www.w3.org/1999/xlink" width="500" zoomAndPan="magnify" viewBox="0 0 375 374.999991" height="500" preserveAspectRatio="xMidYMid meet" version="1.0"><defs><g/><clipPath id="55efabb69c"><path d="M 109.671875 92.265625 L 255.171875 92.265625 L 255.171875 241 L 109.671875 241 Z M 109.671875 92.265625 " clip-rule="nonzero"/></clipPath></defs><g clip-path="url(#55efabb69c)"><path fill="#ffffff" d="M 185.3125 234.777344 C 192.320312 234.921875 198.957031 233.136719 205.589844 231.113281 C 206.246094 232.804688 206.90625 234.496094 207.609375 236.234375 C 190.816406 242.109375 174.023438 241.96875 157.230469 236.140625 C 157.324219 235.859375 157.371094 235.625 157.464844 235.390625 C 157.980469 233.933594 158.453125 232.476562 159.015625 230.925781 C 165.695312 232.992188 172.375 234.730469 179.480469 234.824219 C 179.480469 234.589844 179.480469 234.355469 179.480469 234.167969 C 179.480469 230.972656 179.480469 227.730469 179.433594 224.539062 C 179.433594 223.316406 178.820312 222.65625 177.597656 222.46875 C 174.964844 222.09375 172.28125 221.8125 169.695312 221.25 C 159.628906 218.898438 150.785156 214.25 143.304688 207.152344 C 140.292969 204.335938 137.753906 201.140625 135.261719 197.898438 C 135.167969 197.757812 135.027344 197.617188 134.882812 197.429688 C 133.707031 198.085938 132.53125 198.746094 131.355469 199.402344 C 129.617188 200.34375 127.921875 201.328125 126.179688 202.269531 C 125.003906 202.925781 124.863281 203.488281 125.757812 204.570312 C 129.144531 208.65625 132.53125 212.746094 135.871094 216.832031 C 136.578125 217.679688 137.238281 218.523438 137.988281 219.371094 C 136.953125 220.589844 135.964844 221.8125 134.882812 223.082031 C 129.285156 218.242188 124.394531 212.792969 120.394531 206.636719 C 114.984375 198.320312 111.550781 189.253906 109.671875 179.480469 C 111.316406 179.152344 112.914062 178.824219 114.609375 178.496094 C 116.867188 185.167969 119.171875 191.792969 121.429688 198.507812 C 124.957031 196.535156 128.441406 194.5625 131.96875 192.589844 C 131.496094 191.460938 131.027344 190.335938 130.554688 189.253906 C 128.722656 184.933594 127.261719 180.515625 126.417969 175.910156 C 125.523438 170.980469 125.335938 166.046875 125.757812 161.066406 C 126.132812 156.414062 127.027344 151.8125 128.488281 147.347656 C 129.097656 145.515625 129.898438 143.777344 130.554688 141.945312 C 130.699219 141.523438 130.746094 141.050781 130.746094 140.628906 C 130.746094 140.066406 130.414062 139.640625 129.898438 139.359375 C 127.261719 137.902344 124.675781 136.449219 121.949219 134.898438 C 121.429688 135.929688 120.867188 136.917969 120.394531 137.949219 C 117.902344 143.117188 116.304688 148.523438 115.175781 154.113281 C 115.078125 154.675781 114.75 154.769531 114.328125 154.675781 C 113.339844 154.441406 112.351562 154.253906 111.363281 153.925781 C 110.28125 153.550781 109.859375 152.9375 110.09375 151.8125 C 110.5625 149.648438 111.035156 147.441406 111.644531 145.328125 C 114.984375 133.957031 120.867188 124.042969 129.144531 115.542969 C 130.699219 113.945312 132.390625 112.394531 134.039062 110.84375 C 134.179688 110.703125 134.320312 110.609375 134.460938 110.515625 C 134.789062 110.328125 135.074219 110.328125 135.355469 110.703125 C 136.203125 111.78125 137.140625 112.816406 138.082031 113.898438 C 133.566406 119.160156 128.957031 124.421875 124.347656 129.683594 C 127.640625 131.609375 130.839844 133.488281 134.132812 135.414062 C 144.902344 119.253906 160.191406 110.796875 179.386719 108.917969 C 179.386719 105.441406 179.386719 101.964844 179.386719 98.441406 C 172.375 98.441406 165.695312 100.179688 159.015625 102.339844 C 158.5 100.976562 157.980469 99.660156 157.558594 98.300781 C 157.371094 97.6875 158.121094 96.84375 158.875 96.65625 C 161.699219 95.996094 164.472656 95.246094 167.296875 94.679688 C 170.449219 94.023438 173.648438 93.414062 176.796875 92.941406 C 180.234375 92.425781 183.714844 92.472656 187.148438 92.753906 C 192.464844 93.179688 197.730469 94.117188 202.859375 95.527344 C 204.554688 95.996094 206.199219 96.515625 207.894531 97.078125 C 207.234375 98.816406 206.574219 100.507812 205.871094 102.246094 C 199.191406 100.179688 192.464844 98.441406 185.359375 98.441406 C 185.359375 98.628906 185.3125 98.816406 185.3125 98.957031 C 185.3125 102.058594 185.3125 105.207031 185.3125 108.304688 C 185.3125 108.777344 185.453125 108.917969 185.878906 108.964844 C 197.496094 110.089844 208.222656 113.660156 217.535156 120.898438 C 222.710938 124.890625 227.039062 129.683594 230.707031 135.085938 C 230.800781 135.226562 230.894531 135.320312 230.992188 135.460938 C 231.085938 135.460938 231.132812 135.414062 231.179688 135.414062 C 233.8125 133.910156 236.398438 132.40625 239.035156 130.902344 C 239.457031 130.667969 239.550781 130.386719 239.550781 129.964844 C 239.503906 129.304688 239.269531 128.695312 238.847656 128.132812 C 235.320312 123.199219 231.460938 118.546875 227.507812 113.992188 C 227.226562 113.660156 227.226562 113.425781 227.460938 113.097656 C 228.167969 112.113281 228.828125 111.125 229.578125 110.089844 C 236.449219 115.117188 241.621094 121.601562 245.902344 128.742188 C 250.511719 136.449219 253.898438 144.621094 255.171875 153.691406 C 253.429688 153.972656 251.734375 154.207031 249.949219 154.488281 C 248.488281 147.722656 246.46875 141.144531 243.082031 135.039062 C 242.890625 135.132812 242.75 135.179688 242.609375 135.273438 C 239.976562 136.777344 237.386719 138.28125 234.753906 139.785156 C 234.378906 140.019531 234.285156 140.207031 234.425781 140.628906 C 235.554688 144.574219 236.730469 148.476562 237.765625 152.421875 C 239.175781 157.777344 239.691406 163.226562 239.503906 168.769531 C 239.222656 176.195312 237.433594 183.289062 234.1875 190.007812 C 233.953125 190.476562 233.8125 190.945312 233.671875 191.414062 C 233.4375 192.167969 233.71875 192.730469 234.285156 193.199219 C 234.519531 193.390625 234.753906 193.53125 234.988281 193.671875 C 237.578125 195.128906 240.210938 196.582031 242.796875 198.039062 C 242.890625 198.085938 242.984375 198.132812 243.175781 198.226562 C 246.46875 192.167969 248.585938 185.683594 249.949219 178.871094 C 251.640625 179.105469 253.335938 179.386719 255.074219 179.625 C 254.980469 180.515625 254.886719 181.363281 254.746094 182.253906 C 253.804688 187.984375 251.828125 193.34375 249.289062 198.507812 C 245.480469 206.355469 240.492188 213.402344 234.238281 219.511719 C 232.917969 220.824219 231.507812 222 230.097656 223.316406 C 229.015625 222.046875 227.980469 220.824219 226.898438 219.605469 C 227.839844 218.523438 228.734375 217.441406 229.625 216.363281 C 232.777344 212.605469 235.929688 208.796875 239.082031 205.039062 C 240.351562 203.535156 240.210938 202.972656 238.46875 202.035156 C 236.257812 200.8125 234.09375 199.542969 231.929688 198.273438 C 231.789062 198.179688 231.648438 198.085938 231.507812 198.039062 C 230.566406 197.523438 230.003906 197.664062 229.34375 198.511719 C 228.589844 199.496094 227.886719 200.53125 227.085938 201.515625 C 220.265625 210.113281 211.5625 216.082031 201.261719 219.746094 C 196.886719 221.296875 192.320312 222.234375 187.664062 222.46875 C 187.242188 222.515625 186.816406 222.5625 186.394531 222.65625 C 185.640625 222.800781 185.359375 223.128906 185.3125 223.878906 C 185.265625 224.300781 185.21875 224.726562 185.21875 225.101562 C 185.21875 228.25 185.21875 231.347656 185.21875 234.496094 C 185.265625 234.496094 185.265625 234.589844 185.3125 234.777344 Z M 233.671875 166.609375 C 233.71875 166.515625 233.71875 166.46875 233.71875 166.421875 C 233.71875 166.234375 233.71875 166.09375 233.71875 165.90625 C 233.765625 161.582031 233.25 157.308594 232.167969 153.078125 C 229.71875 143.683594 225.109375 135.554688 218.007812 128.882812 C 212.457031 123.667969 206.011719 119.910156 198.859375 117.28125 C 190.207031 114.085938 181.410156 113.378906 172.375 115.445312 C 166.308594 116.808594 160.757812 119.300781 155.488281 122.589844 C 145.375 128.835938 138.175781 137.480469 134.320312 148.804688 C 132.4375 154.347656 131.496094 160.125 131.214844 165.953125 C 131.214844 166.1875 131.214844 166.375 131.214844 166.609375 C 165.414062 166.609375 199.519531 166.609375 233.671875 166.609375 Z M 171.8125 172.71875 C 171.765625 173.515625 171.71875 174.265625 171.71875 175.019531 C 171.71875 186.8125 171.71875 198.652344 171.71875 210.441406 C 171.71875 211.710938 171.671875 212.980469 171.71875 214.25 C 171.765625 215.421875 172.1875 215.796875 173.363281 216.035156 C 178.257812 216.878906 183.195312 217.160156 188.136719 216.597656 C 189.3125 216.457031 190.441406 216.269531 191.570312 216.035156 C 192.464844 215.847656 192.933594 215.234375 193.074219 214.34375 C 193.121094 214.058594 193.121094 213.730469 193.121094 213.449219 C 193.121094 210.679688 193.121094 207.90625 193.121094 205.132812 C 193.121094 195.222656 193.121094 185.308594 193.121094 175.394531 C 193.121094 174.503906 193.027344 173.609375 192.980469 172.71875 C 185.832031 172.71875 178.867188 172.71875 171.8125 172.71875 Z M 198.625 214.15625 C 199.472656 213.871094 200.273438 213.730469 200.929688 213.355469 C 204.695312 211.382812 208.457031 209.363281 212.175781 207.296875 C 213.066406 206.824219 213.585938 206.027344 213.632812 204.992188 C 213.679688 204.382812 213.679688 203.820312 213.679688 203.207031 C 213.679688 199.496094 213.679688 195.832031 213.679688 192.121094 C 213.679688 186.339844 213.679688 180.5625 213.679688 174.785156 C 213.679688 174.125 213.632812 173.421875 213.585938 172.71875 C 208.597656 172.71875 203.613281 172.71875 198.625 172.71875 C 198.625 186.484375 198.625 200.25 198.625 214.15625 Z M 150.972656 172.765625 C 150.972656 173.046875 150.972656 173.234375 150.972656 173.421875 C 150.972656 182.300781 150.972656 191.226562 150.972656 200.105469 C 150.972656 201.140625 151.019531 202.128906 151.066406 203.160156 C 151.160156 205.226562 151.960938 206.871094 153.75 207.953125 C 154.03125 208.140625 154.3125 208.328125 154.59375 208.515625 C 158.171875 210.679688 162.027344 212.371094 165.835938 214.109375 C 165.886719 214.15625 165.980469 214.109375 166.027344 214.109375 C 166.027344 200.296875 166.027344 186.53125 166.027344 172.765625 C 161.039062 172.765625 156.054688 172.765625 150.972656 172.765625 Z M 219.230469 200.53125 C 219.558594 200.296875 219.839844 200.105469 220.078125 199.917969 C 220.96875 199.027344 221.910156 198.179688 222.710938 197.242188 C 227.039062 191.792969 230.050781 185.636719 232.074219 178.964844 C 232.636719 177.132812 233.058594 175.253906 232.871094 173.328125 C 232.824219 172.859375 232.683594 172.71875 232.214844 172.71875 C 228.074219 172.71875 223.933594 172.71875 219.792969 172.71875 C 219.605469 172.71875 219.417969 172.71875 219.230469 172.765625 C 219.230469 181.972656 219.230469 191.179688 219.230469 200.53125 Z M 145.328125 199.824219 C 145.328125 190.710938 145.328125 181.738281 145.328125 172.71875 C 140.859375 172.71875 136.390625 172.71875 131.921875 172.71875 C 133.519531 183.148438 137.753906 192.214844 145.328125 199.824219 Z M 145.65625 151.199219 C 146.128906 153.550781 147.539062 154.957031 149.890625 155.429688 C 153.183594 156.085938 156.429688 156.085938 159.675781 155.238281 C 165.132812 153.832031 169.226562 150.496094 172.1875 145.84375 C 174.210938 142.648438 174.679688 139.125 173.742188 135.460938 C 172.421875 130.386719 168.097656 127.003906 162.921875 127.144531 C 158.921875 127.238281 155.300781 128.554688 152.195312 131.140625 C 147.398438 135.132812 145.28125 140.441406 145.09375 147.207031 C 145.234375 148.144531 145.375 149.695312 145.65625 151.199219 Z M 212.878906 155.898438 C 216.453125 155.710938 218.808594 153.738281 219.699219 150.261719 C 220.21875 148.097656 220.125 145.9375 219.792969 143.730469 C 218.996094 138.328125 216.597656 133.910156 212.125 130.667969 C 209.117188 128.460938 205.917969 126.957031 202.105469 127.097656 C 199.566406 127.191406 197.214844 127.804688 195.285156 129.496094 C 191.335938 132.972656 190.253906 137.386719 191.429688 142.414062 C 192.179688 145.515625 194.15625 147.910156 196.367188 150.070312 C 200.554688 154.160156 205.683594 155.804688 211.421875 155.898438 C 211.890625 155.898438 212.410156 155.898438 212.878906 155.898438 Z M 182.347656 161.863281 C 185.5 161.816406 188.089844 159.234375 188.042969 156.179688 C 188.042969 153.265625 185.125 150.355469 182.253906 150.402344 C 179.246094 150.449219 176.515625 153.21875 176.515625 156.179688 C 176.609375 159.46875 179.054688 161.910156 182.347656 161.863281 Z M 182.347656 161.863281 " fill-opacity="1" fill-rule="nonzero"/></g><g fill="#ffffff" fill-opacity="1"><g transform="translate(111.623159, 273.535128)"><g><path d="M 7.578125 0.296875 C 6.304688 0.296875 5.1875 0.078125 4.21875 -0.359375 C 3.25 -0.796875 2.484375 -1.421875 1.921875 -2.234375 C 1.367188 -3.046875 1.082031 -4.035156 1.0625 -5.203125 L 4.390625 -5.203125 C 4.421875 -4.398438 4.710938 -3.722656 5.265625 -3.171875 C 5.816406 -2.617188 6.578125 -2.34375 7.546875 -2.34375 C 8.390625 -2.34375 9.054688 -2.546875 9.546875 -2.953125 C 10.046875 -3.359375 10.296875 -3.894531 10.296875 -4.5625 C 10.296875 -5.269531 10.078125 -5.820312 9.640625 -6.21875 C 9.203125 -6.613281 8.617188 -6.929688 7.890625 -7.171875 C 7.171875 -7.421875 6.398438 -7.6875 5.578125 -7.96875 C 4.242188 -8.4375 3.226562 -9.03125 2.53125 -9.75 C 1.832031 -10.476562 1.484375 -11.441406 1.484375 -12.640625 C 1.460938 -13.660156 1.703125 -14.535156 2.203125 -15.265625 C 2.710938 -16.003906 3.398438 -16.570312 4.265625 -16.96875 C 5.140625 -17.375 6.144531 -17.578125 7.28125 -17.578125 C 8.4375 -17.578125 9.453125 -17.367188 10.328125 -16.953125 C 11.210938 -16.546875 11.90625 -15.972656 12.40625 -15.234375 C 12.90625 -14.492188 13.171875 -13.613281 13.203125 -12.59375 L 9.828125 -12.59375 C 9.804688 -13.195312 9.566406 -13.734375 9.109375 -14.203125 C 8.660156 -14.671875 8.035156 -14.90625 7.234375 -14.90625 C 6.546875 -14.925781 5.96875 -14.757812 5.5 -14.40625 C 5.03125 -14.050781 4.796875 -13.535156 4.796875 -12.859375 C 4.796875 -12.285156 4.972656 -11.828125 5.328125 -11.484375 C 5.691406 -11.148438 6.1875 -10.867188 6.8125 -10.640625 C 7.4375 -10.410156 8.15625 -10.164062 8.96875 -9.90625 C 9.820312 -9.601562 10.601562 -9.253906 11.3125 -8.859375 C 12.019531 -8.460938 12.585938 -7.9375 13.015625 -7.28125 C 13.441406 -6.632812 13.65625 -5.804688 13.65625 -4.796875 C 13.65625 -3.890625 13.421875 -3.046875 12.953125 -2.265625 C 12.492188 -1.492188 11.8125 -0.875 10.90625 -0.40625 C 10 0.0625 8.890625 0.296875 7.578125 0.296875 Z M 7.578125 0.296875 "/></g></g></g><g fill="#ffffff" fill-opacity="1"><g transform="translate(130.184377, 273.535128)"><g><path d="M 1.671875 0 L 1.671875 -17.28125 L 4.84375 -17.28125 L 4.84375 -10.09375 L 12.59375 -10.09375 L 12.59375 -17.28125 L 15.75 -17.28125 L 15.75 0 L 12.59375 0 L 12.59375 -7.53125 L 4.84375 -7.53125 L 4.84375 0 Z M 1.671875 0 "/></g></g></g><g fill="#ffffff" fill-opacity="1"><g transform="translate(151.435625, 273.535128)"><g><path d="M 1.671875 0 L 1.671875 -17.28125 L 4.84375 -17.28125 L 4.84375 0 Z M 1.671875 0 "/></g></g></g><g fill="#ffffff" fill-opacity="1"><g transform="translate(161.778638, 273.535128)"><g><path d="M 1.671875 0 L 1.671875 -17.28125 L 4.84375 -17.28125 L 12.96875 -5.109375 L 12.96875 -17.28125 L 16.125 -17.28125 L 16.125 0 L 12.96875 0 L 4.84375 -12.140625 L 4.84375 0 Z M 1.671875 0 "/></g></g></g><g fill="#ffffff" fill-opacity="1"><g transform="translate(183.392206, 273.535128)"><g><path d="M 7.328125 0.296875 C 6.066406 0.296875 4.960938 0.0664062 4.015625 -0.390625 C 3.078125 -0.859375 2.351562 -1.503906 1.84375 -2.328125 C 1.34375 -3.148438 1.09375 -4.101562 1.09375 -5.1875 L 3.265625 -5.1875 C 3.265625 -4.507812 3.421875 -3.882812 3.734375 -3.3125 C 4.046875 -2.75 4.5 -2.296875 5.09375 -1.953125 C 5.695312 -1.617188 6.441406 -1.453125 7.328125 -1.453125 C 8.492188 -1.453125 9.398438 -1.734375 10.046875 -2.296875 C 10.691406 -2.859375 11.015625 -3.554688 11.015625 -4.390625 C 11.015625 -5.085938 10.863281 -5.644531 10.5625 -6.0625 C 10.269531 -6.476562 9.867188 -6.816406 9.359375 -7.078125 C 8.859375 -7.347656 8.285156 -7.582031 7.640625 -7.78125 C 6.992188 -7.976562 6.316406 -8.195312 5.609375 -8.4375 C 4.273438 -8.90625 3.285156 -9.476562 2.640625 -10.15625 C 1.992188 -10.84375 1.671875 -11.738281 1.671875 -12.84375 C 1.660156 -13.757812 1.875 -14.578125 2.3125 -15.296875 C 2.757812 -16.015625 3.390625 -16.570312 4.203125 -16.96875 C 5.023438 -17.375 5.992188 -17.578125 7.109375 -17.578125 C 8.210938 -17.578125 9.171875 -17.367188 9.984375 -16.953125 C 10.796875 -16.546875 11.425781 -15.976562 11.875 -15.25 C 12.332031 -14.53125 12.570312 -13.707031 12.59375 -12.78125 L 10.421875 -12.78125 C 10.421875 -13.257812 10.296875 -13.734375 10.046875 -14.203125 C 9.796875 -14.671875 9.421875 -15.050781 8.921875 -15.34375 C 8.421875 -15.644531 7.789062 -15.796875 7.03125 -15.796875 C 6.09375 -15.816406 5.320312 -15.578125 4.71875 -15.078125 C 4.125 -14.585938 3.828125 -13.90625 3.828125 -13.03125 C 3.828125 -12.289062 4.035156 -11.722656 4.453125 -11.328125 C 4.867188 -10.929688 5.457031 -10.601562 6.21875 -10.34375 C 6.976562 -10.09375 7.851562 -9.804688 8.84375 -9.484375 C 9.664062 -9.179688 10.40625 -8.832031 11.0625 -8.4375 C 11.71875 -8.039062 12.226562 -7.53125 12.59375 -6.90625 C 12.96875 -6.28125 13.15625 -5.484375 13.15625 -4.515625 C 13.15625 -3.691406 12.941406 -2.914062 12.515625 -2.1875 C 12.085938 -1.457031 11.441406 -0.859375 10.578125 -0.390625 C 9.710938 0.0664062 8.628906 0.296875 7.328125 0.296875 Z M 7.328125 0.296875 "/></g></g></g><g fill="#ffffff" fill-opacity="1"><g transform="translate(201.484509, 273.535128)"><g><path d="M 1.828125 0 L 1.828125 -17.28125 L 12.515625 -17.28125 L 12.515625 -15.578125 L 3.90625 -15.578125 L 3.90625 -9.546875 L 11.78125 -9.546875 L 11.78125 -7.875 L 3.90625 -7.875 L 3.90625 -1.703125 L 12.515625 -1.703125 L 12.515625 0 Z M 1.828125 0 "/></g></g></g><g fill="#ffffff" fill-opacity="1"><g transform="translate(219.231307, 273.535128)"><g><path d="M 1.828125 0 L 1.828125 -17.28125 L 3.90625 -17.28125 L 3.90625 -9.453125 L 11.109375 -17.28125 L 13.71875 -17.28125 L 7.3125 -10.390625 L 13.828125 0 L 11.3125 0 L 5.828125 -8.78125 L 3.90625 -6.734375 L 3.90625 0 Z M 1.828125 0 "/></g></g></g><g fill="#ffffff" fill-opacity="1"><g transform="translate(237.422331, 273.535128)"><g><path d="M 0.734375 0 L 7.109375 -17.28125 L 9.3125 -17.28125 L 15.65625 0 L 13.453125 0 L 11.875 -4.4375 L 4.515625 -4.4375 L 2.90625 0 Z M 5.140625 -6.125 L 11.25 -6.125 L 8.203125 -14.671875 Z M 5.140625 -6.125 "/></g></g></g><g fill="#ffffff" fill-opacity="1"><g transform="translate(257.637053, 273.535128)"><g><path d="M 1.828125 0 L 1.828125 -17.28125 L 3.90625 -17.28125 L 3.90625 0 Z M 1.828125 0 "/></g></g></g></svg>